<?xml version="1.0" encoding="UTF-8"?> <!-- Generator: Adobe Illustrator 21.0.0, SVG Export Plug-In . SVG Version: 6.00 Build 0) --> <svg xmlns="http://www.w3.org/2000/svg" xmlns:xlink="http://www.w3.org/1999/xlink" id="Capa_1" x="0px" y="0px" viewBox="0 0 512 512" style="enable-background:new 0 0 512 512;" xml:space="preserve"> <g id="XMLID_2380_"> <g id="XMLID_2381_"> <g id="XMLID_2382_"> <path id="XMLID_2385_" style="fill:#00D2F9;" d="M504.5,130.662c0-39.172-111.257-70.926-248.5-70.926S7.5,91.49,7.5,130.662 c0,0,0,277.451,0,277.451c0-39.17,111.26-70.92,248.5-70.92s248.5,31.75,248.5,70.92C504.5,408.113,504.5,130.662,504.5,130.662z "></path> <path id="XMLID_2386_" style="fill:#1475CC;" d="M74.046,186.255c0-4.295-2.745-8.12-6.82-9.477 C29.999,164.379,7.5,148.272,7.5,130.662v277.451c0,16.545,19.859,31.765,53.134,43.829c6.519,2.363,13.412-2.471,13.412-9.405 V186.255z"></path> <path style="fill:#1475CC;" d="M437.954,186.255c0-4.295,2.745-8.12,6.82-9.477c37.227-12.399,59.727-28.506,59.727-46.116 v277.451c0,16.545-19.859,31.765-53.134,43.829c-6.519,2.363-13.412-2.471-13.412-9.405V186.255z"></path> </g> <g id="XMLID_2387_"> <g id="XMLID_2388_"> <path style="fill:#00F2A9;" d="M360.577,484.374H151.421v-85.589c0-57.757,46.821-104.578,104.578-104.578h0 c57.757,0,104.578,46.821,104.578,104.578V484.374z"></path> <path id="XMLID_2389_" style="fill:#00D292;" d="M360.579,398.787v85.59h-21.5v-85.59c0-28.88-11.7-55.02-30.63-73.95 c-16.55-16.55-38.61-27.57-63.2-30.08c3.53-0.37,7.12-0.55,10.75-0.55c28.88,0,55.02,11.7,73.95,30.63 S360.579,369.907,360.579,398.787z"></path> <g id="XMLID_2390_"> <rect id="XMLID_2391_" x="151.421" y="446.207" style="fill:#FDD1A7;" width="48.244" height="38.167"></rect> <rect id="XMLID_2392_" x="312.332" y="446.207" style="fill:#FDD1A7;" width="48.244" height="38.167"></rect> <rect id="XMLID_2393_" x="339.079" y="446.207" style="fill:#FFBC8A;" width="21.5" height="38.17"></rect> </g> </g> <g id="XMLID_2394_"> <g id="XMLID_2395_"> <g id="XMLID_2396_"> <path id="XMLID_2397_" style="fill:#FFBC8A;" d="M314.112,231.913h22.118c8.403,0,15.216,6.812,15.216,15.216v10.586 c0,8.403-6.812,15.216-15.216,15.216h-22.118V231.913z"></path> </g> <g id="XMLID_2398_"> <path style="fill:#FFBC8A;" d="M197.886,231.913h-22.118c-8.403,0-15.216,6.812-15.216,15.216v10.586 c0,8.403,6.812,15.216,15.216,15.216h22.118V231.913z"></path> </g> </g> <path id="XMLID_2399_" style="fill:#FDD1A7;" d="M323.518,213.631v57.366c0,37.29-30.229,67.519-67.519,67.519h0 c-37.29,0-67.519-30.229-67.519-67.519v-57.366c0-8.921,7.232-16.153,16.153-16.153h102.732 C316.286,197.478,323.518,204.71,323.518,213.631z"></path> <path id="XMLID_2400_" style="fill:#FF6A3D;" d="M186.895,180.344L186.895,180.344c0,24.212,19.627,43.839,43.839,43.839h52.439 c3.584,0,6.489-2.905,6.489-6.489l0,0c0-3.584,2.905-6.489,6.489-6.489h30.953c5.523,0,10-4.477,10-10v-12.899 c0-22.938-18.595-41.534-41.534-41.534h-75.103C201.925,146.773,186.895,161.803,186.895,180.344L186.895,180.344z"></path> <path id="XMLID_2401_" style="fill:#ED462F;" d="M337.099,188.311v12.9c0,5.52-4.47,10-10,10h-20.17c5.53,0,10-4.48,10-10v-12.9 c0-22.94-18.59-41.54-41.53-41.54h20.17C318.509,146.771,337.099,165.371,337.099,188.311z"></path> <g id="XMLID_2402_"> <path style="fill:#6ADCFA;" d="M231.832,284.93h-38.786c-5.523,0-10-4.477-10-10v-18c0-5.523,4.477-10,10-10h38.786 c5.523,0,10,4.477,10,10v18C241.832,280.453,237.355,284.93,231.832,284.93z"></path> </g> <g id="XMLID_2403_"> <path id="XMLID_2406_" style="fill:#00C2F8;" d="M241.829,256.931v18c0,5.52-4.47,10-10,10h-17.5c5.53,0,10-4.48,10-10v-18 c0-5.52-4.47-10-10-10h17.5C237.359,246.931,241.829,251.411,241.829,256.931z"></path> </g> </g> </g> <g id="XMLID_2407_"> <circle style="fill:#FF6A3D;" cx="151.422" cy="79.17" r="51.543"></circle> <g id="XMLID_2408_"> <path style="fill:#D6F1F2;" d="M167.091,74.587l-19.889-11.824c-3.554-2.113-8.056,0.448-8.056,4.583v23.648 c0,4.135,4.502,6.696,8.056,4.583l19.889-11.824C170.568,81.686,170.568,76.653,167.091,74.587z"></path> </g> </g> <g id="XMLID_2409_"> <circle style="fill:#FFB54E;" cx="79.783" cy="352.184" r="45.11"></circle> </g> <g id="XMLID_2410_"> <g id="XMLID_2412_"> <circle style="fill:#D6F1F2;" cx="426.58" cy="181.657" r="57"></circle> </g> <g id="XMLID_2413_"> <path id="XMLID_2414_" style="fill:#00F2A9;" d="M448.456,163.41c-2.85-2.846-6.582-4.273-10.313-4.273 c-3.732,0-7.463,1.427-10.313,4.273l-1.284,1.289l-1.289-1.289c-2.846-2.846-6.582-4.273-10.313-4.273 c-3.845,0-7.694,1.515-10.57,4.536c-5.49,5.767-5.165,14.942,0.465,20.572l18.679,18.679c1.672,1.672,4.382,1.671,6.053,0 l18.884-18.888C454.152,178.34,454.152,169.106,448.456,163.41z"></path> </g> </g> </g> <g id="XMLID_2415_"> <path id="XMLID_2416_" d="M466.39,84.702c-26.839-11.582-64.248-20.664-108.18-26.267c-4.12-0.529-7.865,2.383-8.389,6.491 c-0.524,4.109,2.382,7.865,6.491,8.389C452.974,85.642,497,111.683,497,130.662c0,7.59-6.719,14.527-13.984,19.811 c-11.011-19.847-32.176-33.316-56.436-33.316c-35.565,0-64.5,28.935-64.5,64.5s28.935,64.5,64.5,64.5 c1.301,0,2.591-0.05,3.874-0.127v21.71c0,4.142,3.358,7.5,7.5,7.5s7.5-3.358,7.5-7.5v-24.406 c26.385-8.09,45.626-32.676,45.626-61.677c0-5.865-0.802-11.543-2.275-16.947c3.02-2.018,5.761-4.079,8.195-6.184v249.586 c0,12.269-17.564,25.674-48.19,36.778c-1.062,0.384-1.89-0.027-2.289-0.306c-0.399-0.28-1.068-0.917-1.068-2.048V302.263 c0-4.142-3.358-7.5-7.5-7.5s-7.5,3.358-7.5,7.5v47.57c-23.775-6.533-52.075-11.746-82.506-15.172 c-7.175-10.276-16.117-19.397-26.583-26.916c4.666-8.266,7.802-17.496,9.04-27.315h5.825c12.525,0,22.716-10.19,22.716-22.715 v-10.586c0-12.525-10.19-22.716-22.716-22.716h-5.211v-6.165c7.768-1.785,13.584-8.741,13.584-17.042v-12.899 c0-27.037-21.997-49.034-49.034-49.034h-24.308c-4.142,0-7.5,3.358-7.5,7.5s3.358,7.5,7.5,7.5h24.308 c18.766,0,34.034,15.268,34.034,34.034v12.899c0,1.378-1.122,2.5-2.5,2.5H296.15c-7.374,0-13.433,5.734-13.953,12.978h-51.463 c-20.037,0-36.339-16.302-36.339-36.339c0-14.376,11.695-26.071,26.071-26.071h16.273c4.142,0,7.5-3.358,7.5-7.5 s-3.358-7.5-7.5-7.5h-16.273c-22.646,0-41.071,18.424-41.071,41.071c0,7.672,1.704,14.951,4.734,21.494 c-2.063,3.579-3.149,7.622-3.149,11.793v10.782h-5.211c-12.525,0-22.716,10.19-22.716,22.716v10.586 c0,12.525,10.19,22.715,22.716,22.715h0.677c1.231,3.707,3.66,6.872,6.839,9.016c1.625,6.411,4.094,12.572,7.328,18.311 c-10.477,7.522-19.419,16.638-26.593,26.909c-11.419,1.286-22.571,2.818-33.241,4.575c-5.643-22.222-25.467-38.834-49.231-39.622 V186.255c0-7.544-4.802-14.212-11.95-16.593C35.41,158.275,15,143.696,15,130.662c0-12.796,20.585-31.255,77.665-45.721 c2.911,29.858,28.148,53.272,58.758,53.272c32.557,0,59.043-26.487,59.043-59.043c0-3.64-0.348-7.198-0.982-10.657 c15.261-0.832,30.864-1.277,46.516-1.277c22.432,0,44.686,0.864,66.146,2.567c0.202,0.016,0.402,0.024,0.602,0.024 c3.873,0,7.156-2.98,7.468-6.907c0.328-4.129-2.754-7.742-6.883-8.07c-21.853-1.735-44.506-2.614-67.333-2.614 c-17.276,0-34.512,0.519-51.295,1.514c-9.517-19.868-29.822-33.624-53.283-33.624c-29.21,0-53.52,21.327-58.211,49.224 C56.828,78.214,0,97.391,0,130.662v277.451c0,19.51,20.083,37.104,58.077,50.879c1.935,0.702,3.95,1.046,5.957,1.046 c3.551,0,7.072-1.08,10.056-3.171c4.669-3.273,7.457-8.63,7.457-14.33v-37.788c27.528-0.913,49.76-23.065,50.796-50.563 c7.207-1.198,14.648-2.29,22.25-3.273c-6.935,14.708-10.671,30.988-10.671,47.871v85.589c0,4.142,3.358,7.5,7.5,7.5 s7.5-3.358,7.5-7.5v-30.667h33.245v30.667c0,4.142,3.358,7.5,7.5,7.5s7.5-3.358,7.5-7.5v-88.167c0-4.142-3.358-7.5-7.5-7.5 s-7.5,3.358-7.5,7.5v42.5h-33.245v-39.922c0-31.46,14.976-60.503,40.322-78.761c2.902,3.363,6.098,6.486,9.575,9.302 c13.292,10.763,30.047,16.691,47.181,16.691c22.643,0,42.959-10.098,56.725-26.01c25.341,18.26,40.352,47.393,40.352,78.778 v39.922h-33.245v-42.5c0-4.142-3.358-7.5-7.5-7.5s-7.5,3.358-7.5,7.5v88.167c0,4.142,3.358,7.5,7.5,7.5s7.5-3.358,7.5-7.5v-30.667 h33.245v30.667c0,4.142,3.358,7.5,7.5,7.5s7.5-3.358,7.5-7.5v-85.589c0-16.856-3.757-33.147-10.711-47.878 c27.129,3.511,52.121,8.469,73.088,14.505v77.125c0,5.699,2.788,11.057,7.457,14.33c2.983,2.092,6.504,3.171,10.056,3.171 c2.006,0,4.022-0.345,5.957-1.046c37.994-13.776,58.077-31.37,58.077-50.88V130.662C512,113.225,496.655,97.762,466.39,84.702z M426.58,231.157c-27.294,0-49.5-22.206-49.5-49.5s22.206-49.5,49.5-49.5s49.5,22.206,49.5,49.5S453.875,231.157,426.58,231.157z M151.422,35.126c24.286,0,44.043,19.758,44.043,44.043s-19.758,44.043-44.043,44.043s-44.043-19.758-44.043-44.043 S127.137,35.126,151.422,35.126z M65.479,444.585c-0.398,0.279-1.225,0.692-2.289,0.306C32.564,433.787,15,420.382,15,408.113 V158.458c10.9,9.461,27.634,18.034,49.856,25.436c1.011,0.336,1.69,1.286,1.69,2.362v115.007 c-22.623,5.885-39.374,26.482-39.374,50.921s16.751,45.037,39.374,50.922v39.432C66.546,443.668,65.877,444.306,65.479,444.585z M79.783,389.794c-20.738,0-37.61-16.872-37.61-37.61s16.872-37.61,37.61-37.61s37.61,16.872,37.61,37.61 S100.521,389.794,79.783,389.794z M336.229,239.413c4.254,0,7.716,3.461,7.716,7.716v10.586c0,4.254-3.461,7.715-7.716,7.715 h-5.211v-26.017H336.229z M193.046,277.43c-1.378,0-2.5-1.122-2.5-2.5v-18c0-1.378,1.122-2.5,2.5-2.5h38.786 c1.378,0,2.5,1.122,2.5,2.5v18c0,1.378-1.122,2.5-2.5,2.5H193.046z M168.052,257.715v-10.586c0-4.254,3.461-7.716,7.716-7.716 h5.211v4.874c-3.34,3.189-5.434,7.672-5.434,12.643v8.489C171.395,265.3,168.052,261.894,168.052,257.715z M255.999,331.017 c-13.907,0-26.958-4.616-37.741-13.348c-8.241-6.673-14.56-15.444-18.32-25.239h31.894c9.649,0,17.5-7.851,17.5-17.5v-18 c0-9.649-7.851-17.5-17.5-17.5h-35.853v-21.341c9.151,8.432,21.359,13.594,34.754,13.594h52.438 c7.374,0,13.433-5.734,13.953-12.978h18.894v52.292C316.019,304.092,289.094,331.017,255.999,331.017z"></path> <path id="XMLID_2426_" d="M284.332,258.43c-4.142,0-7.5,3.402-7.5,7.544s3.358,7.5,7.5,7.5s7.5-3.358,7.5-7.5v-0.088 C291.832,261.744,288.474,258.43,284.332,258.43z"></path> <path id="XMLID_2427_" d="M263.999,273.207c-4.142,0-7.5,3.358-7.5,7.5v12.5h-3.5c-4.142,0-7.5,3.358-7.5,7.5s3.358,7.5,7.5,7.5 h11c4.142,0,7.5-3.358,7.5-7.5v-20C271.499,276.565,268.141,273.207,263.999,273.207z"></path> <path id="XMLID_2428_" d="M229.045,375.746c-4.142,0-7.5,3.402-7.5,7.544s3.358,7.5,7.5,7.5c4.142,0,7.5-3.358,7.5-7.5v-0.088 C236.545,379.06,233.187,375.746,229.045,375.746z"></path> <path id="XMLID_2429_" d="M255.999,375.746c-4.142,0-7.5,3.402-7.5,7.544s3.358,7.5,7.5,7.5s7.5-3.358,7.5-7.5v-0.088 C263.499,379.06,260.141,375.746,255.999,375.746z"></path> <path id="XMLID_2430_" d="M282.952,375.746c-4.142,0-7.5,3.402-7.5,7.544s3.358,7.5,7.5,7.5s7.5-3.358,7.5-7.5v-0.088 C290.452,379.06,287.094,375.746,282.952,375.746z"></path> <path id="XMLID_2431_" d="M138.133,102.147c1.964,1.117,4.154,1.674,6.344,1.674c2.272,0,4.543-0.6,6.558-1.798l19.889-11.824 c3.929-2.335,6.274-6.458,6.274-11.029c0-4.571-2.345-8.694-6.274-11.03c0,0,0,0,0,0l-19.889-11.824 c-3.957-2.352-8.901-2.4-12.902-0.124c-4.001,2.276-6.487,6.55-6.487,11.153v23.648 C131.646,95.597,134.131,99.871,138.133,102.147z M146.646,71.157l13.478,8.012l-13.478,8.013V71.157z"></path> <path id="XMLID_2434_" d="M453.755,158.103c-4.176-4.169-9.72-6.465-15.612-6.465c-4.156,0-8.14,1.143-11.597,3.284 c-3.453-2.14-7.44-3.284-11.602-3.284c-6.017,0-11.849,2.502-16.002,6.865c-8.189,8.603-7.923,22.53,0.594,31.046l18.679,18.679 c2.225,2.226,5.184,3.451,8.331,3.451c3.147,0,6.105-1.226,8.33-3.451l18.883-18.887c4.171-4.171,6.469-9.718,6.469-15.617 s-2.298-11.445-6.469-15.617C453.758,158.105,453.756,158.104,453.755,158.103z M443.152,178.733l-16.607,16.61l-16.403-16.402 c-2.81-2.81-2.961-7.34-0.336-10.097c1.355-1.423,3.179-2.207,5.138-2.207c1.892,0,3.671,0.737,5.01,2.076l1.289,1.289 c1.407,1.407,3.314,2.197,5.303,2.197c0.002,0,0.004,0,0.006,0c1.991-0.001,3.9-0.795,5.306-2.206l1.271-1.275 c1.343-1.342,3.124-2.081,5.014-2.081c1.889,0,3.669,0.738,5.013,2.079c1.336,1.338,2.073,3.116,2.073,5.007 C445.229,175.615,444.491,177.395,443.152,178.733z"></path> <path id="XMLID_2437_" d="M91.283,344.684h-4v-4c0-4.142-3.358-7.5-7.5-7.5s-7.5,3.358-7.5,7.5v4h-4c-4.142,0-7.5,3.358-7.5,7.5 s3.358,7.5,7.5,7.5h4v4c0,4.142,3.358,7.5,7.5,7.5s7.5-3.358,7.5-7.5v-4h4c4.142,0,7.5-3.358,7.5-7.5 S95.425,344.684,91.283,344.684z"></path> </g> </g> <g> </g> <g> </g> <g> </g> <g> </g> <g> </g> <g> </g> <g> </g> <g> </g> <g> </g> <g> </g> <g> </g> <g> </g> <g> </g> <g> </g> <g> </g> </svg> 