<?xml version="1.0" encoding="UTF-8"?> <!-- Generator: Adobe Illustrator 21.0.0, SVG Export Plug-In . SVG Version: 6.00 Build 0) --> <svg xmlns="http://www.w3.org/2000/svg" xmlns:xlink="http://www.w3.org/1999/xlink" id="Capa_1" x="0px" y="0px" viewBox="0 0 512 512" style="enable-background:new 0 0 512 512;" xml:space="preserve"> <g id="XMLID_418_"> <g id="XMLID_419_"> <g id="XMLID_420_"> <g id="XMLID_421_"> <g id="XMLID_422_"> <g id="XMLID_423_"> <path id="XMLID_424_" style="fill:#7DA2B0;" d="M7.5,406.051v48.675c0,11.046,8.954,20,20,20h457c11.046,0,20-8.954,20-20 v-48.675H7.5z"></path> <path id="XMLID_425_" style="fill:#688D97;" d="M504.5,406.046v48.68c0,11.05-8.95,20-20,20h-29.67c11.05,0,20-8.95,20-20 v-48.68H504.5z"></path> <path style="fill:#557983;" d="M504.5,252.019v171.708c0,11.046-8.954,20-20,20h-457c-11.046,0-20-8.954-20-20V252.019 c0-11.046,8.954-20,20-20h457C495.546,232.019,504.5,240.973,504.5,252.019z"></path> <path id="XMLID_426_" style="fill:#3F5959;" d="M504.5,252.022v171.7c0,11.05-8.95,20-20,20h-34.47c11.04,0,20-8.95,20-20 v-171.7c0-11.05-8.96-20-20-20h34.47C495.55,232.022,504.5,240.972,504.5,252.022z"></path> <g id="XMLID_427_"> <path id="XMLID_430_" style="fill:#FFDBAA;" d="M470,252.023v171.7c0,11.05-8.95,20-20,20H62c-11.05,0-20-8.95-20-20v-171.7 c0-11.05,8.95-20,20-20h388C461.05,232.023,470,240.973,470,252.023z"></path> <path id="XMLID_431_" style="fill:#FFC26D;" d="M470,252.026v171.7c0,11.05-8.95,20-20,20h-29.33c11.05,0,20-8.95,20-20 v-171.7c0-11.05-8.95-20-20-20H450C461.05,232.026,470,240.976,470,252.026z"></path> </g> </g> </g> </g> </g> <g id="XMLID_432_"> <g id="XMLID_433_"> <rect x="135.137" y="225.564" transform="matrix(0.7071 0.7071 -0.7071 0.7071 233.0648 -26.8736)" style="fill:#688D97;" width="27.67" height="84.667"></rect> <g id="XMLID_434_"> <path style="fill:#D6F1F2;" d="M169.458,215.991l31.42,31.42L368.122,97.896c2.093-1.871,3.303-4.536,3.334-7.344l0.394-35.424 c0.062-5.61-4.501-10.173-10.111-10.111l-35.424,0.394c-2.807,0.031-5.472,1.241-7.344,3.334L169.458,215.991z"></path> <path style="fill:#A9D3D8;" d="M184.099,230.632l16.779,16.779L368.122,97.896c2.093-1.871,3.303-4.536,3.334-7.343 l0.395-35.423c0.063-5.611-4.502-10.175-10.113-10.111l-10.357,0.118l-0.403,36.31L184.099,230.632z"></path> </g> <path style="fill:#FF7D4D;" d="M199.207,274.231l-56.569-56.569c-3.905-3.905-3.905-10.237,0-14.142l7.748-7.748 c3.905-3.905,10.237-3.905,14.142,0l56.569,56.569c3.905,3.905,3.905,10.237,0,14.142l-7.748,7.748 C209.443,278.136,203.112,278.136,199.207,274.231z"></path> <path style="fill:#FF5633;" d="M221.097,266.483l-7.75,7.75c-3.903,3.903-10.239,3.903-14.142,0l-15.083-15.083 c3.903,3.903,10.239,3.903,14.142,0l7.75-7.75c3.903-3.903,3.903-10.239,0-14.142l15.083,15.083 C225,256.244,225,262.58,221.097,266.483z"></path> <g id="XMLID_435_"> <path style="fill:#FF7D4D;" d="M125.771,326.453l-35.355-35.355c-3.905-3.905-3.905-10.237,0-14.142l7.748-7.748 c3.905-3.905,10.237-3.905,14.142,0l35.355,35.355c3.905,3.905,3.905,10.237,0,14.142l-7.748,7.748 C136.008,330.358,129.676,330.358,125.771,326.453z"></path> <path style="fill:#FF5633;" d="M147.661,318.705l-7.75,7.75c-3.903,3.903-10.239,3.903-14.142,0l-15.083-15.083 c3.903,3.903,10.239,3.903,14.142,0l7.75-7.75c3.903-3.903,3.903-10.239,0-14.142l15.083,15.083 C151.564,308.466,151.564,314.802,147.661,318.705z"></path> </g> </g> <g id="XMLID_436_"> <rect x="349.193" y="225.564" transform="matrix(0.7071 -0.7071 0.7071 0.7071 -83.1036 335.1647)" style="fill:#688D97;" width="27.67" height="84.667"></rect> <g id="XMLID_437_"> <path style="fill:#D6F1F2;" d="M311.121,247.411l31.42-31.42L193.027,48.747c-1.871-2.093-4.536-3.303-7.344-3.334 l-35.424-0.394c-5.61-0.062-10.173,4.501-10.111,10.111l0.394,35.424c0.031,2.807,1.241,5.472,3.334,7.344L311.121,247.411z"></path> <path style="fill:#A9D3D8;" d="M325.762,232.77l16.779-16.779L193.026,48.747c-1.871-2.093-4.536-3.303-7.343-3.334 l-35.423-0.395c-5.611-0.063-10.175,4.502-10.111,10.113l0.118,10.357l36.31,0.403L325.762,232.77z"></path> </g> <path style="fill:#00D2F9;" d="M369.361,217.662l-56.569,56.569c-3.905,3.905-10.237,3.905-14.142,0l-7.748-7.748 c-3.905-3.905-3.905-10.237,0-14.142l56.569-56.569c3.905-3.905,10.237-3.905,14.142,0l7.748,7.748 C373.267,207.425,373.267,213.757,369.361,217.662z"></path> <path style="fill:#00ABEF;" d="M361.614,195.772l7.75,7.75c3.903,3.903,3.903,10.239,0,14.142l-15.083,15.083 c3.903-3.903,3.903-10.239,0-14.142l-7.75-7.75c-3.903-3.903-10.239-3.903-14.142,0l15.083-15.083 C351.375,191.869,357.71,191.869,361.614,195.772z"></path> <g id="XMLID_438_"> <path style="fill:#00D2F9;" d="M421.584,291.098l-35.355,35.355c-3.905,3.905-10.237,3.905-14.142,0l-7.748-7.748 c-3.905-3.905-3.905-10.237,0-14.142l35.355-35.355c3.905-3.905,10.237-3.905,14.142,0l7.748,7.748 C425.489,280.861,425.489,287.193,421.584,291.098z"></path> <path style="fill:#00ABEF;" d="M413.836,269.208l7.75,7.75c3.903,3.903,3.903,10.239,0,14.142l-15.083,15.083 c3.903-3.903,3.903-10.239,0-14.142l-7.75-7.75c-3.903-3.903-10.239-3.903-14.142,0l15.083-15.083 C403.597,265.305,409.933,265.305,413.836,269.208z"></path> </g> </g> </g> <g id="XMLID_440_"> <g id="XMLID_442_"> <path style="fill:#FF7D4D;" d="M213.162,402.048H92.171c-5.523,0-10-4.477-10-10v-15.843c0-5.523,4.477-10,10-10h120.991 c5.523,0,10,4.477,10,10v15.843C223.162,397.571,218.685,402.048,213.162,402.048z"></path> <path style="fill:#00E29E;" d="M136.077,402.048H92.171c-5.523,0-10-4.477-10-10v-15.843c0-5.523,4.477-10,10-10h43.906V402.048 z"></path> </g> <g id="XMLID_443_"> <path style="fill:#FF7D4D;" d="M419.829,402.048H298.838c-5.523,0-10-4.477-10-10v-15.843c0-5.523,4.477-10,10-10h120.991 c5.523,0,10,4.477,10,10v15.843C429.829,397.571,425.352,402.048,419.829,402.048z"></path> <path style="fill:#00E29E;" d="M387.744,402.048h-88.906c-5.523,0-10-4.477-10-10v-15.843c0-5.523,4.477-10,10-10h88.906 V402.048z"></path> </g> </g> </g> <g id="XMLID_444_"> <path id="XMLID_445_" d="M484.5,224.519H373.112l1.553-1.553c3.305-3.306,5.125-7.7,5.125-12.375c0-4.674-1.82-9.068-5.125-12.373 l-7.748-7.749c-3.305-3.305-7.7-5.125-12.375-5.125s-9.069,1.82-12.374,5.125l-6.538,6.538l-29.814-33.349l67.304-60.17 c3.654-3.267,5.781-7.951,5.836-12.852l0.395-35.423c0.053-4.749-1.767-9.213-5.125-12.57c-3.31-3.311-7.695-5.126-12.368-5.126 c-0.067,0-0.134,0.001-0.201,0.001l-35.423,0.395c-4.902,0.055-9.586,2.183-12.852,5.836L256,107.934l-57.381-64.185 c-3.266-3.654-7.951-5.782-12.853-5.837l-35.423-0.395c-4.762-0.004-9.212,1.769-12.569,5.125 c-3.357,3.357-5.177,7.821-5.125,12.569l0.395,35.423c0.055,4.901,2.182,9.586,5.835,12.853l21.614,19.322 c3.087,2.761,7.829,2.493,10.59-0.593c2.761-3.089,2.496-7.83-0.593-10.591l-21.614-19.322c-0.521-0.466-0.825-1.136-0.833-1.836 l-0.395-35.424c-0.01-0.914,0.454-1.517,0.732-1.795c0.275-0.274,0.868-0.732,1.766-0.732c0.01,0,0.02,0,0.03,0.001l35.423,0.395 c0.7,0.008,1.369,0.311,1.836,0.834L325.007,207.63l-22.246,22.246l-106.588-95.289c-3.087-2.761-7.83-2.493-10.59,0.593 c-2.761,3.089-2.496,7.83,0.593,10.591l20.008,17.887l-29.814,33.349l-6.538-6.538c-6.823-6.822-17.925-6.823-24.749,0.001 l-7.748,7.747c-3.306,3.306-5.126,7.7-5.126,12.374c0,4.675,1.82,9.069,5.126,12.375l1.553,1.553H27.5 c-15.164,0-27.5,12.337-27.5,27.5v202.707c0,15.163,12.336,27.5,27.5,27.5h457c15.164,0,27.5-12.337,27.5-27.5V252.019 C512,236.856,499.664,224.519,484.5,224.519z M324.565,53.745c0.466-0.522,1.135-0.825,1.835-0.833l35.423-0.395 c0.01-0.001,0.02-0.001,0.03-0.001c0.898,0,1.491,0.458,1.766,0.732c0.278,0.278,0.743,0.881,0.732,1.796l-0.395,35.424 c-0.008,0.699-0.312,1.369-0.833,1.835l-67.305,60.17l-29.759-33.287L324.565,53.745z M369.642,309.867l35.355-35.355 c0.637-0.638,1.381-0.732,1.768-0.732c0.387,0,1.131,0.095,1.768,0.732l7.748,7.747c0.637,0.637,0.732,1.381,0.732,1.768 s-0.095,1.131-0.732,1.768l-35.355,35.355c-0.976,0.977-2.562,0.976-3.536,0.001l-7.748-7.749 c-0.637-0.637-0.732-1.381-0.732-1.768S369.004,310.504,369.642,309.867z M372.234,286.062l-30.332-30.333l8.958-8.958 l30.332,30.332L372.234,286.062z M352.775,201.075c0.637-0.637,1.38-0.731,1.767-0.731s1.131,0.095,1.768,0.731l7.748,7.749 c0.975,0.975,0.975,2.56,0,3.534l-56.568,56.568c-0.975,0.975-2.561,0.975-3.536,0l-7.748-7.747c-0.975-0.975-0.975-2.561,0-3.535 L352.775,201.075z M274.261,224.519h-36.522L256,208.193L274.261,224.519z M217.366,173.655l27.38,24.478l-35.507,31.744 l-22.247-22.247L217.366,173.655z M147.942,208.823l7.747-7.747c0.487-0.487,1.127-0.731,1.768-0.731 c0.64,0,1.28,0.244,1.768,0.731l56.569,56.568c0.975,0.975,0.975,2.561,0,3.535l-7.749,7.747c-0.974,0.975-2.561,0.975-3.536,0 l-56.568-56.568C146.967,211.384,146.967,209.799,147.942,208.823z M142.358,309.867c0.975,0.975,0.975,2.56,0,3.534l-7.749,7.749 c-0.637,0.637-1.38,0.731-1.767,0.731s-1.131-0.095-1.768-0.732l-35.355-35.355c-0.637-0.637-0.732-1.381-0.732-1.768 s0.095-1.131,0.732-1.768l7.748-7.747c0.637-0.638,1.381-0.732,1.768-0.732c0.386,0,1.13,0.095,1.768,0.732L142.358,309.867z M130.807,277.103l30.332-30.332l8.959,8.959l-30.332,30.332L130.807,277.103z M15,252.019c0-6.893,5.607-12.5,12.5-12.5h10.018 c-1.924,3.753-3.018,8-3.018,12.5v171.708c0,4.5,1.093,8.747,3.017,12.5H27.5c-6.893,0-12.5-5.607-12.5-12.5V252.019z M484.5,467.226h-457c-6.893,0-12.5-5.607-12.5-12.5v-6.517c3.753,1.924,8,3.018,12.5,3.018h457c4.5,0,8.747-1.093,12.5-3.018 v6.517C497,461.618,491.393,467.226,484.5,467.226z M497,423.727c0,6.893-5.607,12.5-12.5,12.5h-10.017 c1.924-3.753,3.017-8,3.017-12.5v-70.464c0-4.143-3.358-7.5-7.5-7.5s-7.5,3.357-7.5,7.5v70.464c0,6.893-5.607,12.5-12.5,12.5H62 c-6.893,0-12.5-5.607-12.5-12.5V252.019c0-6.893,5.607-12.5,12.5-12.5h85.178L120.2,266.496l-2.592-2.592 c-6.823-6.821-17.925-6.823-24.749,0l-7.748,7.747c-3.305,3.306-5.126,7.7-5.126,12.375s1.821,9.069,5.126,12.375l35.355,35.355 c3.305,3.305,7.7,5.125,12.375,5.125s9.069-1.82,12.374-5.125l7.748-7.748c6.823-6.823,6.823-17.926,0-24.749l-2.591-2.591 l30.332-30.332l13.198,13.198c3.305,3.305,7.7,5.125,12.375,5.125c4.674,0,9.069-1.82,12.374-5.125l7.749-7.747 c6.823-6.824,6.823-17.926,0-24.75l-6.537-6.537l1.098-0.981h70.079l1.098,0.981l-6.537,6.537c-6.823,6.824-6.823,17.926,0,24.75 l7.748,7.747c3.305,3.305,7.7,5.125,12.375,5.125c4.674,0,9.069-1.82,12.374-5.125l13.198-13.198l30.333,30.333l-2.591,2.591 c-3.306,3.305-5.126,7.699-5.126,12.374s1.821,9.069,5.125,12.374l7.748,7.749c3.412,3.411,7.893,5.117,12.375,5.117 s8.963-1.706,12.375-5.117l35.355-35.355c3.305-3.306,5.126-7.7,5.126-12.375s-1.821-9.069-5.126-12.375l-7.748-7.747 c-6.823-6.822-17.925-6.822-24.749,0l-2.592,2.592l-26.977-26.977H450c6.893,0,12.5,5.607,12.5,12.5v66.721 c0,4.143,3.358,7.5,7.5,7.5s7.5-3.357,7.5-7.5v-66.721c0-4.5-1.093-8.747-3.018-12.5H484.5c6.893,0,12.5,5.607,12.5,12.5V423.727z "></path> <path id="XMLID_459_" d="M83.185,43.716l11.17,6.669c1.205,0.72,2.53,1.062,3.837,1.062c2.554,0,5.043-1.305,6.447-3.656 c2.124-3.557,0.961-8.161-2.595-10.284l-11.17-6.669c-3.559-2.126-8.162-0.962-10.284,2.595 C78.466,36.988,79.628,41.593,83.185,43.716z"></path> <path id="XMLID_460_" d="M94.355,87.372l-11.17,6.669c-3.556,2.123-4.718,6.728-2.595,10.284c1.404,2.352,3.893,3.656,6.447,3.656 c1.308,0,2.633-0.342,3.837-1.062l11.17-6.669c3.556-2.123,4.718-6.728,2.595-10.284C102.516,86.41,97.911,85.245,94.355,87.372z"></path> <path id="XMLID_461_" d="M81.574,76.379h11.17c4.142,0,7.5-3.357,7.5-7.5s-3.358-7.5-7.5-7.5h-11.17c-4.142,0-7.5,3.357-7.5,7.5 S77.432,76.379,81.574,76.379z"></path> <path id="XMLID_462_" d="M409.956,100.251l11.17,6.669c1.205,0.72,2.53,1.062,3.837,1.062c2.554,0,5.043-1.305,6.447-3.656 c2.124-3.557,0.961-8.161-2.595-10.284l-11.17-6.669c-3.559-2.127-8.162-0.962-10.284,2.595 C405.237,93.524,406.399,98.128,409.956,100.251z"></path> <path id="XMLID_463_" d="M413.808,51.446c1.308,0,2.633-0.342,3.837-1.062l11.17-6.669c3.556-2.123,4.718-6.728,2.595-10.284 c-2.123-3.557-6.728-4.721-10.284-2.595l-11.17,6.669c-3.556,2.123-4.718,6.728-2.595,10.284 C408.765,50.142,411.254,51.446,413.808,51.446z"></path> <path id="XMLID_464_" d="M419.255,61.379c-4.142,0-7.5,3.357-7.5,7.5s3.358,7.5,7.5,7.5h11.17c4.142,0,7.5-3.357,7.5-7.5 s-3.358-7.5-7.5-7.5H419.255z"></path> <path id="XMLID_465_" d="M213.162,358.705H92.171c-9.649,0-17.5,7.851-17.5,17.5v15.843c0,9.649,7.851,17.5,17.5,17.5h120.991 c9.649,0,17.5-7.851,17.5-17.5v-15.843C230.662,366.556,222.812,358.705,213.162,358.705z M89.671,392.048v-15.843 c0-1.379,1.122-2.5,2.5-2.5h36.406v20.843H92.171C90.793,394.548,89.671,393.427,89.671,392.048z M215.662,392.048 c0,1.379-1.122,2.5-2.5,2.5h-69.584v-20.843h69.584c1.378,0,2.5,1.121,2.5,2.5V392.048z"></path> <path id="XMLID_469_" d="M419.829,358.706h-66.567c-4.142,0-7.5,3.357-7.5,7.5s3.358,7.5,7.5,7.5h26.983v20.842h-81.406 c-1.378,0-2.5-1.121-2.5-2.5v-15.842c0-1.379,1.122-2.5,2.5-2.5h19.901c4.142,0,7.5-3.357,7.5-7.5s-3.358-7.5-7.5-7.5h-19.901 c-9.649,0-17.5,7.851-17.5,17.5v15.842c0,9.649,7.851,17.5,17.5,17.5h120.991c9.649,0,17.5-7.851,17.5-17.5v-15.842 C437.329,366.557,429.478,358.706,419.829,358.706z M422.329,392.048c0,1.379-1.122,2.5-2.5,2.5h-24.584v-20.842h24.584 c1.378,0,2.5,1.121,2.5,2.5V392.048z"></path> </g> </g> <g> </g> <g> </g> <g> </g> <g> </g> <g> </g> <g> </g> <g> </g> <g> </g> <g> </g> <g> </g> <g> </g> <g> </g> <g> </g> <g> </g> <g> </g> </svg> 