<?xml version="1.0" encoding="UTF-8"?> <svg xmlns="http://www.w3.org/2000/svg" width="101" height="101" viewBox="0 0 101 101" fill="none"> <path d="M95.1818 60.183C95.1818 53.194 89.5858 47.499 82.6408 47.316C77.5458 34.393 65.0238 25.189 50.3578 24.992C51.5408 23.529 52.6858 21.674 52.7318 19.922C52.8268 16.158 50.4698 14.784 48.7498 13.781C47.1888 12.871 46.4388 12.367 46.4358 10.866C46.4298 7.905 49.2668 7.632 49.8268 7.607C50.6548 7.582 51.3058 6.89 51.2798 6.062C51.2558 5.233 50.5628 4.587 49.7348 4.608C47.5518 4.674 43.4258 6.069 43.4358 10.873C43.4448 14.16 45.6368 15.438 47.2388 16.372C48.9578 17.374 49.7818 17.94 49.7338 19.844C49.6958 21.274 47.6168 23.763 46.0528 25.191C32.8458 26.627 21.8158 35.395 17.1158 47.329C10.2838 47.642 4.81885 53.279 4.81885 60.183C4.81885 67.093 10.2848 72.735 17.1178 73.048C22.2668 86.114 35.0068 95.39 49.8808 95.39C64.7508 95.39 77.4868 86.12 82.6388 73.06C89.5838 72.879 95.1818 67.179 95.1818 60.183ZM7.81885 60.183C7.81885 55.298 11.3878 51.24 16.0548 50.449C15.1628 53.544 14.6738 56.808 14.6738 60.187C14.6738 63.567 15.1628 66.833 16.0558 69.928C11.3878 69.137 7.81885 65.074 7.81885 60.183ZM49.8808 92.39C32.1218 92.39 17.6738 77.944 17.6738 60.186C17.6738 42.427 32.1218 27.979 49.8808 27.979C67.6398 27.979 82.0878 42.427 82.0878 60.186C82.0878 77.944 67.6398 92.39 49.8808 92.39ZM83.6948 69.968C84.5958 66.861 85.0878 63.581 85.0878 60.187C85.0878 56.794 84.5958 53.516 83.6958 50.41C88.4838 51.092 92.1818 55.209 92.1818 60.184C92.1818 65.164 88.4838 69.286 83.6948 69.968Z" fill="#F77482"></path> <path d="M40.655 56.378C40.655 57.206 41.327 57.878 42.155 57.878C42.983 57.878 43.655 57.206 43.655 56.378C43.655 52.535 40.527 49.409 36.682 49.409C32.837 49.409 29.709 52.535 29.709 56.378C29.709 57.206 30.381 57.878 31.209 57.878C32.037 57.878 32.709 57.206 32.709 56.378C32.709 54.19 34.491 52.409 36.682 52.409C38.873 52.409 40.655 54.189 40.655 56.378Z" fill="#F77482"></path> <path d="M62.7108 49.408C58.8658 49.408 55.7378 52.534 55.7378 56.377C55.7378 57.205 56.4098 57.877 57.2378 57.877C58.0658 57.877 58.7378 57.205 58.7378 56.377C58.7378 54.189 60.5198 52.408 62.7108 52.408C64.9018 52.408 66.6838 54.189 66.6838 56.377C66.6838 57.205 67.3558 57.877 68.1838 57.877C69.0118 57.877 69.6838 57.205 69.6838 56.377C69.6838 52.535 66.5558 49.408 62.7108 49.408Z" fill="#F77482"></path> <path d="M63.8978 66.259C63.0698 66.259 62.3978 66.931 62.3978 67.759C62.3978 74.663 56.7828 80.279 49.8798 80.279C42.9788 80.279 37.3628 74.663 37.3628 67.759C37.3628 66.931 36.6908 66.259 35.8628 66.259C35.0348 66.259 34.3628 66.931 34.3628 67.759C34.3628 76.317 41.3238 83.279 49.8798 83.279C58.4368 83.279 65.3978 76.317 65.3978 67.759C65.3978 66.93 64.7268 66.259 63.8978 66.259Z" fill="#F77482"></path> </svg> 