<?xml version="1.0" encoding="UTF-8"?> <svg xmlns="http://www.w3.org/2000/svg" width="848" height="192" viewBox="0 0 848 192" fill="none"> <path fill-rule="evenodd" clip-rule="evenodd" d="M329.402 102.3C329.402 102.3 273.077 191.062 176.986 191.062C103.181 191.062 46.4739 150.856 18.6542 124.714C5.47176 112.327 0 102.748 0 102.748C0 102.748 67.8271 180.128 170.161 176.268C252.342 173.168 295.734 104.093 295.734 104.093C295.734 104.093 346.235 36.2231 295.711 104.056C307.372 88.4012 329.402 102.3 329.402 102.3Z" fill="#F98E3C"></path> <path d="M96.233 130.656H94.1255V134.168H96.233V130.656Z" fill="white"></path> <path fill-rule="evenodd" clip-rule="evenodd" d="M329.402 102.3C329.402 102.3 304.346 93.8744 295.711 104.056C133.203 295.698 295.734 104.093 295.734 104.093C295.734 104.093 245.818 42.0082 176.529 46.7114C113.472 50.9917 118.912 116.446 160.15 121.577C189.871 125.273 195.183 99.1621 195.183 99.1621C195.183 99.1621 194.33 127.018 161.515 126.508C113.985 125.769 94.9839 48.4381 170.156 32.8145C226.467 21.1109 273.945 51.2334 302.098 75.4022C319.142 90.0296 329.402 102.3 329.402 102.3Z" fill="#78C479"></path> <path fill-rule="evenodd" clip-rule="evenodd" d="M21.5864 88.8466C21.5864 88.8466 77.9529 0 174.115 0C247.974 0 304.723 40.2434 332.562 66.4109C345.754 78.81 351.23 88.3991 351.23 88.3991C351.23 88.3991 283.353 10.9449 180.944 14.8087C98.7041 17.9102 55.2769 87.0517 55.2769 87.0517C55.2769 87.0517 4.73977 154.984 55.3001 87.0883C43.633 102.759 21.5864 88.8466 21.5864 88.8466Z" fill="#00B5E2"></path> <path fill-rule="evenodd" clip-rule="evenodd" d="M21.5864 88.8465C21.5864 88.8465 46.6608 97.2807 55.3022 87.0903L55.279 87.0538C55.279 87.0538 105.233 149.198 174.57 144.49C237.673 140.205 232.23 74.6884 190.961 69.5538C161.218 65.853 155.902 91.9895 155.902 91.9895C155.902 91.9895 156.756 64.1073 189.596 64.618C237.16 65.357 256.175 142.762 180.944 158.402C124.591 170.117 77.0783 139.965 48.9053 115.773C31.8535 101.129 21.5864 88.8465 21.5864 88.8465Z" fill="#F77482"></path> <path d="M404.591 110.664C403.956 112.477 403.231 113.747 402.415 114.472C401.69 115.197 400.42 115.605 398.607 115.696H392.759C390.764 115.696 389.268 115.379 388.271 114.744C387.274 114.109 386.412 112.749 385.687 110.664L354.679 22.128C354.498 21.6747 354.498 21.2667 354.679 20.904C354.86 20.5413 355.223 20.36 355.767 20.36H365.559C366.647 20.36 367.418 20.904 367.871 21.992C367.871 22.1733 368.324 23.624 369.231 26.344C370.138 28.9733 371.226 32.328 372.495 36.408C373.855 40.3973 375.306 44.7947 376.847 49.6C378.479 54.3147 380.02 58.8933 381.471 63.336C383.012 67.688 384.327 71.5867 385.415 75.032C386.594 78.3867 387.41 80.6533 387.863 81.832C387.954 82.104 388.316 83.2827 388.951 85.368C389.676 87.4533 390.447 89.72 391.263 92.168C392.079 94.616 392.85 96.928 393.575 99.104C394.3 101.189 394.754 102.413 394.935 102.776H395.615L402.143 81.968L422.407 21.992C422.77 21.176 423.132 20.7227 423.495 20.632C423.948 20.4507 424.538 20.36 425.263 20.36H434.647C435.735 20.36 436.052 20.9493 435.599 22.128L404.591 110.664Z" fill="#01B5E2"></path> <path d="M523.642 67.688C523.642 83.6453 520.197 95.8853 513.306 104.408C506.506 112.931 496.351 117.192 482.842 117.192C469.423 117.192 459.359 112.976 452.65 104.544C446.031 96.112 442.722 84.008 442.722 68.232C442.722 60.344 443.719 53.3627 445.714 47.288C447.799 41.1227 450.61 35.9547 454.146 31.784C457.773 27.6133 462.034 24.44 466.93 22.264C471.917 20.088 477.311 19 483.114 19C489.733 19 495.581 20.1333 500.658 22.4C505.735 24.576 509.951 27.7947 513.306 32.056C516.751 36.2267 519.335 41.304 521.058 47.288C522.781 53.272 523.642 60.072 523.642 67.688ZM510.858 68.232C510.858 63.2453 510.45 58.4853 509.634 53.952C508.909 49.328 507.503 45.248 505.418 41.712C503.423 38.176 500.658 35.3653 497.122 33.28C493.586 31.1947 489.053 30.152 483.522 30.152C478.626 30.152 474.41 31.1493 470.874 33.144C467.338 35.1387 464.391 37.8587 462.034 41.304C459.767 44.7493 458.045 48.7387 456.866 53.272C455.778 57.8053 455.234 62.6107 455.234 67.688C455.234 73.3093 455.687 78.4773 456.594 83.192C457.501 87.816 458.997 91.8507 461.082 95.296C463.258 98.6507 466.114 101.28 469.65 103.184C473.186 105.088 477.629 106.04 482.978 106.04C488.237 106.04 492.634 104.997 496.17 102.912C499.797 100.827 502.698 98.016 504.874 94.48C507.05 90.944 508.591 86.9093 509.498 82.376C510.405 77.8427 510.858 73.128 510.858 68.232Z" fill="#01B5E2"></path> <path d="M541.333 27.16C541.333 24.8027 541.831 23.08 542.829 21.992C543.826 20.8133 545.639 20.224 548.269 20.224H579.413C583.765 20.224 587.663 20.904 591.109 22.264C594.645 23.5333 597.682 25.392 600.221 27.84C602.759 30.1973 604.709 33.008 606.069 36.272C607.429 39.536 608.109 43.1173 608.109 47.016C608.109 52.456 606.749 57.2613 604.029 61.432C601.309 65.512 597.546 68.4587 592.741 70.272V70.816C596.458 71.9947 599.133 73.7627 600.765 76.12C602.397 78.3867 603.666 81.1973 604.573 84.552L612.461 113.248C612.642 113.701 612.642 114.245 612.461 114.88C612.37 115.424 611.826 115.696 610.829 115.696H601.853C601.399 115.696 600.901 115.605 600.357 115.424C599.903 115.243 599.586 114.744 599.405 113.928L592.197 87.952C591.471 85.3227 590.519 83.1467 589.341 81.424C588.162 79.7013 586.757 78.3413 585.125 77.344C583.583 76.3467 581.815 75.6667 579.821 75.304C577.917 74.9413 575.831 74.76 573.565 74.76H554.117V113.384C554.117 114.381 553.935 115.016 553.573 115.288C553.21 115.56 552.53 115.696 551.533 115.696H543.917C543.01 115.696 542.33 115.56 541.877 115.288C541.514 115.016 541.333 114.381 541.333 113.384V27.16ZM595.597 47.56C595.597 45.7467 595.325 43.9333 594.781 42.12C594.237 40.216 593.285 38.4933 591.925 36.952C590.565 35.4107 588.751 34.1867 586.485 33.28C584.218 32.2827 581.362 31.784 577.917 31.784H554.253V63.88H576.965C580.229 63.88 583.039 63.472 585.397 62.656C587.754 61.7493 589.658 60.5707 591.109 59.12C592.65 57.5787 593.783 55.856 594.509 53.952C595.234 51.9573 595.597 49.8267 595.597 47.56Z" fill="#01B5E2"></path> <path d="M646.729 31.512H620.209C619.393 31.512 618.849 31.376 618.577 31.104C618.396 30.7413 618.305 30.152 618.305 29.336V22.672C618.305 21.9467 618.396 21.4027 618.577 21.04C618.849 20.6773 619.393 20.496 620.209 20.496H686.849C687.665 20.496 688.164 20.6773 688.345 21.04C688.617 21.4027 688.753 21.9467 688.753 22.672V29.336C688.753 30.152 688.617 30.7413 688.345 31.104C688.164 31.376 687.665 31.512 686.849 31.512H659.513V113.384C659.513 114.381 659.332 115.016 658.969 115.288C658.607 115.56 657.972 115.696 657.065 115.696H649.313C648.407 115.696 647.727 115.56 647.273 115.288C646.911 115.016 646.729 114.381 646.729 113.384V31.512Z" fill="#01B5E2"></path> <path d="M764.216 112.84C764.216 113.837 764.035 114.563 763.672 115.016C763.4 115.469 762.72 115.696 761.632 115.696H723.824C719.382 115.696 715.664 115.061 712.672 113.792C709.771 112.523 707.414 110.845 705.6 108.76C703.878 106.675 702.654 104.227 701.928 101.416C701.203 98.6053 700.84 95.6133 700.84 92.44V43.752C700.84 40.6693 701.248 37.7227 702.064 34.912C702.88 32.0107 704.195 29.5173 706.008 27.432C707.912 25.256 710.315 23.5333 713.216 22.264C716.118 20.9947 719.654 20.36 723.824 20.36H760.952C761.95 20.36 762.584 20.5867 762.856 21.04C763.219 21.4933 763.4 22.2187 763.4 23.216V28.928C763.4 29.9253 763.219 30.6507 762.856 31.104C762.584 31.4667 761.95 31.648 760.952 31.648H723.96C720.152 31.648 717.387 32.5093 715.664 34.232C714.032 35.864 713.216 38.448 713.216 41.984V59.664H756.464C757.462 59.664 758.096 59.8907 758.368 60.344C758.731 60.7973 758.912 61.5227 758.912 62.52V67.688C758.912 68.5947 758.731 69.2747 758.368 69.728C758.096 70.1813 757.462 70.408 756.464 70.408H713.216V94.072C713.216 97.1547 714.032 99.648 715.664 101.552C717.296 103.365 720.062 104.272 723.96 104.272H761.632C762.72 104.272 763.4 104.499 763.672 104.952C764.035 105.405 764.216 106.131 764.216 107.128V112.84Z" fill="#01B5E2"></path> <path d="M844.062 113.928C844.244 114.291 844.244 114.699 844.062 115.152C843.972 115.515 843.609 115.696 842.974 115.696H833.046C832.049 115.696 831.324 115.56 830.87 115.288C830.417 115.016 829.964 114.517 829.51 113.792L807.342 76.392L785.174 113.792C784.721 114.517 784.222 115.016 783.678 115.288C783.225 115.56 782.5 115.696 781.502 115.696H772.118C771.393 115.696 770.94 115.515 770.758 115.152C770.668 114.789 770.758 114.381 771.03 113.928L800.27 66.6L773.07 21.992C772.889 21.72 772.844 21.4027 772.934 21.04C773.116 20.5867 773.524 20.36 774.158 20.36H783.542C784.721 20.36 785.492 20.496 785.854 20.768C786.308 20.9493 786.761 21.448 787.214 22.264L807.75 56.4L828.014 22.264C828.468 21.5387 828.921 21.04 829.374 20.768C829.918 20.496 830.689 20.36 831.686 20.36H840.662C841.297 20.36 841.66 20.5867 841.75 21.04C841.932 21.4027 841.886 21.8107 841.614 22.264L814.55 66.328L844.062 113.928Z" fill="#01B5E2"></path> <path fill-rule="evenodd" clip-rule="evenodd" d="M608.785 137.696H723.941L714.296 172.821H599.177L608.785 137.696Z" fill="#F77482"></path> <path fill-rule="evenodd" clip-rule="evenodd" d="M634.779 155.303C635.25 155.084 635.646 154.732 635.917 154.289C636.199 153.845 636.347 153.329 636.345 152.803C636.379 152.35 636.296 151.896 636.104 151.484C635.911 151.073 635.615 150.719 635.244 150.456C634.404 149.931 633.425 149.672 632.434 149.713H627.104C626.829 149.695 626.557 149.784 626.346 149.961C626.254 150.05 626.182 150.159 626.136 150.279C626.089 150.399 626.069 150.528 626.077 150.656V161.152C626.071 161.278 626.091 161.403 626.135 161.52C626.179 161.638 626.247 161.745 626.333 161.836C626.438 161.929 626.56 162 626.693 162.045C626.826 162.089 626.966 162.107 627.106 162.096H632.682C633.25 162.101 633.816 162.013 634.356 161.836C634.845 161.678 635.299 161.425 635.691 161.093C636.063 160.776 636.366 160.387 636.584 159.949C636.809 159.487 636.922 158.978 636.914 158.464C636.916 157.829 636.746 157.205 636.423 156.659C636.041 156.059 635.447 155.625 634.76 155.444L634.779 155.303ZM628.201 151.505H632.456C632.683 151.494 632.91 151.527 633.124 151.604C633.338 151.68 633.535 151.798 633.704 151.95C633.853 152.087 633.971 152.254 634.051 152.439C634.131 152.625 634.171 152.825 634.168 153.027C634.18 153.31 634.112 153.59 633.972 153.836C633.854 154.033 633.695 154.205 633.508 154.339C633.326 154.464 633.123 154.555 632.909 154.608C632.721 154.658 632.528 154.686 632.334 154.69H628.201V151.505ZM634.608 159.053C634.539 159.312 634.409 159.55 634.229 159.749C634.014 159.98 633.75 160.162 633.457 160.28C633.051 160.434 632.619 160.506 632.185 160.49H628.199V156.292H632.21C632.882 156.241 633.549 156.443 634.08 156.858C634.286 157.045 634.449 157.275 634.556 157.532C634.664 157.789 634.715 158.066 634.704 158.344C634.702 158.583 634.67 158.821 634.608 159.052V159.053ZM639.596 161.176C639.585 161.305 639.604 161.434 639.65 161.555C639.697 161.675 639.77 161.783 639.865 161.871C640.067 162.029 640.319 162.108 640.574 162.096H641.136C641.37 162.106 641.603 162.053 641.809 161.942C642.022 161.797 642.201 161.608 642.335 161.388L646.15 155.822C646.345 155.541 646.524 155.273 646.687 155.02C646.85 154.767 647.009 154.519 647.164 154.277L647.629 153.545C647.784 153.302 647.96 153.038 648.155 152.755H648.302V161.765C648.294 161.815 648.298 161.866 648.315 161.914C648.333 161.961 648.361 162.003 648.399 162.037C648.49 162.082 648.592 162.102 648.693 162.096H650.038C650.143 162.105 650.249 162.084 650.343 162.037C650.378 162.001 650.403 161.958 650.418 161.911C650.433 161.864 650.437 161.814 650.429 161.765V150.656C650.439 150.525 650.418 150.393 650.37 150.27C650.321 150.148 650.245 150.038 650.148 149.949C649.952 149.789 649.706 149.705 649.453 149.713H648.821C648.574 149.693 648.327 149.751 648.114 149.878C647.927 150.037 647.769 150.229 647.651 150.444L643.969 155.94C643.562 156.506 643.2 157.036 642.883 157.531C642.566 158.026 642.213 158.573 641.823 159.171H641.725V150.067C641.733 150.012 641.729 149.957 641.714 149.904C641.699 149.851 641.673 149.802 641.638 149.76C641.545 149.704 641.437 149.679 641.329 149.689H639.994C639.89 149.682 639.787 149.707 639.697 149.76C639.658 149.8 639.629 149.848 639.612 149.902C639.594 149.955 639.59 150.011 639.598 150.067V161.176H639.596ZM658.45 145.424C658.201 145.183 657.868 145.048 657.521 145.046C657.35 145.047 657.181 145.081 657.023 145.148C656.866 145.215 656.723 145.312 656.604 145.435C656.48 145.543 656.381 145.675 656.311 145.823C656.242 145.971 656.204 146.133 656.201 146.296C656.202 146.464 656.239 146.629 656.309 146.781C656.378 146.934 656.479 147.07 656.604 147.181C656.727 147.305 656.874 147.404 657.036 147.47C657.198 147.537 657.371 147.571 657.546 147.57C657.887 147.564 658.211 147.424 658.45 147.181C658.578 147.072 658.682 146.936 658.754 146.784C658.825 146.631 658.864 146.465 658.866 146.296C658.864 146.129 658.826 145.965 658.754 145.814C658.683 145.663 658.579 145.53 658.45 145.424V145.424ZM654.024 145.435C653.785 145.192 653.46 145.052 653.12 145.046C652.771 145.049 652.437 145.188 652.19 145.435C652.064 145.541 651.961 145.673 651.89 145.821C651.818 145.97 651.779 146.132 651.774 146.296C651.777 146.465 651.815 146.631 651.887 146.783C651.959 146.936 652.062 147.071 652.19 147.181C652.437 147.427 652.771 147.567 653.12 147.57C653.46 147.564 653.785 147.424 654.024 147.181C654.153 147.071 654.256 146.936 654.328 146.783C654.399 146.631 654.438 146.465 654.44 146.296C654.436 146.131 654.397 145.968 654.325 145.819C654.254 145.67 654.151 145.538 654.024 145.432V145.435ZM656.372 150.072C656.381 150.018 656.377 149.963 656.36 149.912C656.343 149.86 656.313 149.814 656.274 149.777C656.183 149.732 656.082 149.712 655.981 149.718H654.636C654.534 149.711 654.433 149.732 654.342 149.777C654.303 149.814 654.273 149.86 654.256 149.912C654.239 149.963 654.235 150.018 654.244 150.072V161.746C654.235 161.8 654.239 161.855 654.256 161.906C654.273 161.958 654.303 162.004 654.342 162.041C654.433 162.087 654.534 162.107 654.636 162.1H655.981C656.082 162.107 656.183 162.086 656.274 162.041C656.313 162.004 656.343 161.958 656.36 161.906C656.377 161.855 656.381 161.8 656.372 161.746V150.067V150.072ZM666.74 155.496C667.34 155.241 667.868 154.844 668.281 154.341C668.661 153.884 668.869 153.308 668.868 152.713C668.885 152.236 668.775 151.763 668.55 151.342C668.324 150.922 667.991 150.568 667.584 150.319C666.57 149.718 665.402 149.425 664.225 149.477C663.428 149.474 662.633 149.554 661.852 149.716C661.156 149.857 660.482 150.09 659.847 150.409C659.811 150.422 659.778 150.443 659.75 150.471C659.723 150.498 659.701 150.531 659.687 150.567C659.673 150.603 659.667 150.642 659.67 150.681C659.672 150.719 659.682 150.757 659.701 150.792L660.14 151.812C660.148 151.862 660.174 151.907 660.213 151.939C660.252 151.972 660.301 151.989 660.351 151.989C660.439 151.981 660.526 151.961 660.608 151.93C661.116 151.732 661.639 151.578 662.173 151.47C662.751 151.341 663.342 151.274 663.934 151.269C664.662 151.223 665.389 151.377 666.036 151.715C666.254 151.835 666.434 152.011 666.559 152.226C666.684 152.44 666.749 152.685 666.746 152.933C666.746 154.088 665.637 154.69 663.42 154.737C663.327 154.713 663.23 154.711 663.136 154.731C663.042 154.751 662.954 154.792 662.878 154.851C662.803 154.911 662.742 154.986 662.7 155.073C662.658 155.159 662.637 155.254 662.638 155.35V155.751C662.627 155.841 662.639 155.933 662.673 156.018C662.707 156.103 662.762 156.177 662.833 156.235C663.021 156.334 663.233 156.379 663.445 156.364C664.435 156.29 665.427 156.481 666.318 156.918C666.579 157.061 666.797 157.27 666.95 157.525C667.103 157.78 667.184 158.072 667.186 158.369C667.187 158.687 667.112 159.001 666.97 159.285C666.828 159.57 666.621 159.818 666.367 160.008C665.566 160.528 664.615 160.764 663.665 160.681C662.99 160.68 662.317 160.601 661.66 160.445C661.116 160.328 660.584 160.164 660.07 159.953C659.986 159.91 659.895 159.882 659.801 159.87C659.759 159.868 659.717 159.879 659.682 159.903C659.646 159.926 659.619 159.96 659.605 160L659.068 161.061C659.05 161.102 659.04 161.145 659.041 161.189C659.041 161.233 659.051 161.277 659.069 161.317C659.088 161.357 659.115 161.392 659.148 161.421C659.181 161.45 659.221 161.471 659.263 161.483C659.958 161.826 660.706 162.049 661.476 162.143C662.306 162.266 663.143 162.329 663.982 162.332C664.752 162.345 665.519 162.242 666.257 162.025C666.849 161.852 667.404 161.572 667.895 161.2C668.319 160.876 668.661 160.459 668.895 159.979C669.128 159.5 669.247 158.973 669.241 158.44C669.253 157.769 669.013 157.117 668.568 156.614C668.085 156.083 667.448 155.716 666.746 155.564V155.494L666.74 155.496ZM671.118 160.497C670.996 160.493 670.876 160.518 670.766 160.569C670.656 160.62 670.56 160.696 670.485 160.792C670.389 160.951 670.346 161.137 670.363 161.322L670.632 165.544C670.632 165.63 670.662 165.714 670.717 165.78C670.764 165.813 670.82 165.83 670.877 165.827H672.221C672.287 165.827 672.351 165.806 672.405 165.768C672.436 165.741 672.46 165.706 672.475 165.667C672.49 165.628 672.495 165.586 672.49 165.544L672.735 162.102H681.978L682.125 165.474C682.119 165.51 682.121 165.548 682.13 165.584C682.139 165.62 682.156 165.653 682.179 165.682C682.202 165.711 682.231 165.735 682.264 165.752C682.296 165.769 682.333 165.779 682.37 165.781H683.715C683.754 165.784 683.794 165.777 683.83 165.762C683.867 165.747 683.899 165.724 683.925 165.694C683.952 165.664 683.97 165.629 683.981 165.591C683.991 165.553 683.992 165.513 683.984 165.474L684.253 161.3C684.265 161.134 684.236 160.967 684.167 160.816C684.103 160.71 684.01 160.625 683.9 160.569C683.79 160.512 683.667 160.488 683.543 160.497L682.835 160.45V150.845C682.846 150.561 682.778 150.279 682.639 150.032C682.51 149.902 682.351 149.805 682.176 149.749C682.002 149.694 681.817 149.681 681.636 149.713H675.595C675.218 149.688 674.842 149.779 674.518 149.973C674.387 150.078 674.279 150.21 674.204 150.361C674.128 150.511 674.085 150.677 674.079 150.845L673.174 156.624C673.064 157.391 672.892 158.148 672.66 158.888C672.472 159.458 672.163 159.98 671.755 160.421L671.118 160.497ZM680.703 160.426H674.052C674.199 160.22 674.33 160.003 674.443 159.777C674.576 159.493 674.679 159.195 674.749 158.889C674.838 158.527 674.928 158.07 675.018 157.518C675.108 156.966 675.218 156.264 675.348 155.411L675.935 151.508H680.703V160.424V160.426ZM686.67 161.182C686.659 161.31 686.678 161.44 686.724 161.56C686.771 161.681 686.844 161.789 686.939 161.877C687.141 162.034 687.392 162.114 687.648 162.101H688.21C688.444 162.112 688.677 162.059 688.883 161.948C689.096 161.803 689.275 161.614 689.409 161.394L693.223 155.827C693.419 155.546 693.598 155.279 693.761 155.026C693.924 154.772 694.083 154.524 694.238 154.282L694.703 153.551C694.858 153.308 695.034 153.044 695.229 152.761H695.376V161.771C695.368 161.821 695.372 161.872 695.389 161.919C695.406 161.967 695.435 162.009 695.473 162.042C695.564 162.087 695.666 162.108 695.767 162.101H697.112C697.217 162.11 697.323 162.09 697.417 162.042C697.451 162.007 697.477 161.964 697.492 161.917C697.507 161.87 697.51 161.82 697.503 161.771V150.656C697.512 150.525 697.492 150.393 697.443 150.27C697.395 150.148 697.319 150.038 697.222 149.949C697.026 149.789 696.78 149.705 696.527 149.713H695.895C695.648 149.693 695.4 149.751 695.187 149.878C695 150.037 694.843 150.229 694.724 150.444L691.043 155.94C690.636 156.506 690.274 157.036 689.957 157.531C689.64 158.026 689.287 158.573 688.897 159.171H688.799V150.067C688.807 150.012 688.803 149.957 688.788 149.904C688.773 149.851 688.747 149.802 688.712 149.76C688.619 149.704 688.511 149.679 688.403 149.689H687.068C686.964 149.682 686.86 149.707 686.771 149.76C686.732 149.8 686.703 149.848 686.685 149.902C686.668 149.955 686.664 150.011 686.672 150.067V161.176L686.67 161.182Z" fill="#202020"></path> <path fill-rule="evenodd" clip-rule="evenodd" d="M360.476 137.696H475.635L466.118 172.821H351L360.476 137.696Z" fill="#01B5E2"></path> <path fill-rule="evenodd" clip-rule="evenodd" d="M391.041 161.742V156.294H393.412C393.918 156.294 394.414 156.424 394.855 156.671C395.091 156.809 395.297 156.992 395.461 157.211C395.625 157.43 395.743 157.679 395.809 157.944L397.003 161.836C397.01 161.885 397.029 161.932 397.059 161.971C397.089 162.011 397.129 162.042 397.175 162.06C397.246 162.082 397.32 162.094 397.395 162.096H398.838C399.016 162.096 399.114 162.049 399.131 161.955C399.147 161.869 399.147 161.781 399.131 161.695L397.884 157.615C397.737 157.143 397.524 156.694 397.252 156.28C396.917 155.846 396.442 155.541 395.907 155.419L395.931 155.372C396.354 155.198 396.713 154.897 396.958 154.511C397.214 154.098 397.404 153.648 397.52 153.177L398.45 150.086C398.466 150.002 398.457 149.917 398.425 149.838C398.404 149.793 398.369 149.756 398.325 149.732C398.281 149.709 398.23 149.7 398.181 149.708H396.836C396.756 149.708 396.677 149.724 396.604 149.755C396.561 149.78 396.524 149.814 396.497 149.855C396.469 149.896 396.452 149.943 396.445 149.991L395.491 152.942C395.401 153.256 395.256 153.551 395.063 153.814C394.908 154.02 394.718 154.196 394.501 154.334C394.303 154.457 394.083 154.541 393.853 154.581C393.619 154.621 393.382 154.641 393.144 154.64H391.041V150.064C391.05 150.012 391.047 149.958 391.032 149.907C391.017 149.856 390.991 149.809 390.956 149.769C390.861 149.722 390.755 149.702 390.65 149.71H389.329C389.224 149.705 389.119 149.726 389.024 149.769C388.981 149.804 388.948 149.85 388.928 149.902C388.909 149.954 388.904 150.01 388.913 150.064V161.739C388.904 161.794 388.909 161.85 388.928 161.902C388.948 161.954 388.981 162 389.024 162.034C389.119 162.079 389.224 162.099 389.329 162.093H390.65C390.755 162.102 390.861 162.082 390.956 162.034C390.991 161.995 391.017 161.948 391.032 161.897C391.047 161.846 391.05 161.792 391.041 161.739V161.739L391.041 161.742ZM402.876 153.439C402.762 154.84 402.644 155.972 402.525 156.836C402.44 157.543 402.28 158.238 402.048 158.911C401.9 159.354 401.654 159.757 401.327 160.091C401.006 160.38 400.638 160.612 400.238 160.775C400.183 160.786 400.131 160.809 400.085 160.842C400.039 160.876 400.001 160.918 399.973 160.967C399.945 161.017 399.928 161.071 399.923 161.128C399.919 161.184 399.926 161.241 399.945 161.294L400.263 162.237C400.27 162.299 400.3 162.356 400.348 162.395C400.396 162.434 400.458 162.454 400.519 162.448C400.631 162.435 400.742 162.411 400.85 162.378C401.512 162.202 402.132 161.893 402.672 161.47C403.173 161.033 403.555 160.477 403.785 159.854C404.099 159.006 404.311 158.123 404.417 157.224C404.563 156.163 404.702 154.846 404.832 153.274L404.979 151.505H409.699V161.741C409.689 161.795 409.694 161.852 409.714 161.904C409.733 161.956 409.767 162.001 409.81 162.036C409.915 162.081 410.029 162.101 410.144 162.095H411.356C411.483 162.105 411.61 162.085 411.727 162.036C411.767 161.999 411.797 161.952 411.814 161.901C411.831 161.849 411.835 161.794 411.826 161.741V150.892C411.846 150.582 411.76 150.274 411.581 150.02C411.454 149.901 411.302 149.813 411.137 149.76C410.971 149.707 410.796 149.69 410.624 149.713H404.323C404.004 149.699 403.691 149.798 403.44 149.994C403.318 150.108 403.222 150.247 403.158 150.402C403.095 150.556 403.065 150.723 403.072 150.89L402.876 153.439ZM425.104 149.972C425.153 149.8 425.08 149.713 424.884 149.713H423.319C423.243 149.705 423.167 149.725 423.105 149.768C423.042 149.811 422.997 149.875 422.977 149.949C422.895 150.169 422.785 150.471 422.647 150.857C422.508 151.243 422.362 151.663 422.206 152.121C422.051 152.58 421.892 153.035 421.73 153.501C421.568 153.968 421.416 154.394 421.278 154.787C421.139 155.179 421.025 155.506 420.935 155.765C420.845 156.025 420.794 156.171 420.776 156.202C420.758 156.232 420.682 156.45 420.543 156.851C420.405 157.252 420.258 157.699 420.104 158.195C419.949 158.69 419.798 159.158 419.651 159.6C419.504 160.041 419.407 160.323 419.358 160.449H419.211L417.964 156.298C417.931 156.204 417.86 155.992 417.753 155.661C417.646 155.33 417.52 154.948 417.374 154.517C417.227 154.084 417.072 153.62 416.909 153.125C416.746 152.63 416.592 152.166 416.445 151.734C416.298 151.301 416.172 150.924 416.066 150.601C415.96 150.279 415.89 150.062 415.855 149.953C415.835 149.879 415.79 149.815 415.727 149.772C415.665 149.729 415.589 149.709 415.513 149.717H413.88C413.684 149.717 413.611 149.804 413.66 149.977L417.426 161.156C417.45 161.3 417.502 161.438 417.58 161.561C417.658 161.685 417.759 161.792 417.878 161.876C418.069 161.95 418.273 161.986 418.477 161.982H418.942C418.925 162.029 418.889 162.139 418.832 162.312C418.775 162.485 418.71 162.669 418.636 162.866C418.562 163.063 418.496 163.248 418.425 163.42C418.355 163.593 418.319 163.701 418.303 163.751C418.178 164.254 417.885 164.701 417.472 165.015C417.062 165.244 416.596 165.354 416.127 165.333C415.943 165.335 415.759 165.323 415.577 165.298C415.421 165.275 415.189 165.224 414.88 165.144C414.793 165.114 414.7 165.11 414.611 165.132C414.57 165.156 414.536 165.188 414.51 165.227C414.485 165.266 414.469 165.31 414.464 165.357L414.195 166.395C414.13 166.582 414.228 166.708 414.489 166.772C414.857 166.874 415.233 166.945 415.613 166.983C415.955 167.015 416.24 167.03 416.469 167.03C417.267 167.063 418.055 166.84 418.717 166.393C419.415 165.802 419.918 165.012 420.16 164.129L425.104 149.972ZM430.325 160.351C429.897 160.163 429.526 159.866 429.249 159.489C428.97 159.097 428.774 158.652 428.674 158.181C428.556 157.638 428.499 157.084 428.503 156.529C428.503 156.121 428.511 155.699 428.527 155.264C428.543 154.829 428.584 154.251 428.65 153.531C429.239 153.105 429.891 152.775 430.582 152.552C431.212 152.336 431.872 152.221 432.538 152.21C433.083 152.188 433.624 152.314 434.103 152.576C434.499 152.809 434.831 153.137 435.069 153.531C435.315 153.95 435.484 154.409 435.571 154.887C435.669 155.404 435.718 155.929 435.717 156.456C435.715 156.944 435.658 157.431 435.546 157.907C435.436 158.393 435.232 158.853 434.947 159.262C434.651 159.681 434.262 160.024 433.809 160.265C433.248 160.544 432.626 160.678 432 160.654C431.426 160.673 430.855 160.57 430.325 160.351V160.351ZM430.9 150.81C430.186 150.989 429.508 151.288 428.895 151.694C428.882 151.68 428.864 151.672 428.846 151.67C428.922 151.074 429.053 150.486 429.237 149.914C429.385 149.46 429.626 149.042 429.946 148.688C430.295 148.322 430.715 148.033 431.181 147.838C431.809 147.573 432.46 147.364 433.125 147.213C434.005 147.009 435.073 146.789 436.329 146.553C436.39 146.544 436.448 146.52 436.498 146.483C436.548 146.447 436.589 146.398 436.615 146.342C436.642 146.286 436.654 146.224 436.651 146.162C436.648 146.1 436.63 146.04 436.598 145.986L436.377 145.067C436.374 145.022 436.358 144.979 436.332 144.942C436.307 144.905 436.272 144.875 436.231 144.856C436.124 144.843 436.016 144.851 435.913 144.879C435.619 144.943 435.289 145.006 434.922 145.068C434.555 145.131 434.177 145.201 433.786 145.279C433.394 145.358 433.003 145.44 432.612 145.527C432.221 145.614 431.862 145.704 431.535 145.798C430.555 146.062 429.641 146.532 428.858 147.178C428.176 147.774 427.645 148.521 427.305 149.36C426.92 150.334 426.681 151.359 426.596 152.402C426.482 153.567 426.425 154.895 426.425 156.388C426.425 157.101 426.49 157.811 426.62 158.511C426.743 159.2 427.01 159.855 427.403 160.433C427.826 161.034 428.399 161.514 429.065 161.825C429.959 162.214 430.929 162.395 431.902 162.355C432.902 162.392 433.898 162.2 434.813 161.793C435.524 161.458 436.151 160.967 436.646 160.355C437.098 159.783 437.426 159.124 437.612 158.42C437.794 157.751 437.889 157.061 437.893 156.368C437.895 155.634 437.813 154.902 437.649 154.187C437.498 153.516 437.215 152.883 436.817 152.323C436.413 151.77 435.88 151.325 435.264 151.026C434.51 150.68 433.685 150.515 432.855 150.542C432.195 150.551 431.538 150.641 430.9 150.81Z" fill="#202020"></path> <path fill-rule="evenodd" clip-rule="evenodd" d="M484.698 137.696H599.855L590.295 172.821H475.177L484.698 137.696Z" fill="#78C479"></path> <path fill-rule="evenodd" clip-rule="evenodd" d="M502.358 161.741V151.505H508.936V161.741C508.927 161.795 508.931 161.85 508.948 161.901C508.965 161.953 508.994 161.999 509.034 162.036C509.125 162.081 509.226 162.102 509.327 162.095H510.673C510.778 162.104 510.884 162.084 510.978 162.036C511.014 161.997 511.04 161.95 511.054 161.899C511.069 161.848 511.073 161.794 511.064 161.741V150.68C511.048 150.459 510.971 150.247 510.843 150.066C510.752 149.942 510.629 149.843 510.488 149.782C510.346 149.72 510.19 149.697 510.037 149.715H501.256C501.102 149.697 500.946 149.72 500.805 149.782C500.663 149.843 500.54 149.942 500.448 150.066C500.321 150.247 500.245 150.459 500.229 150.68V161.741C500.219 161.795 500.223 161.85 500.24 161.901C500.257 161.953 500.287 161.999 500.326 162.036C500.417 162.081 500.518 162.102 500.62 162.095H501.969C502.07 162.102 502.171 162.081 502.262 162.036C502.302 161.999 502.331 161.953 502.348 161.901C502.365 161.85 502.369 161.795 502.36 161.741V161.741H502.358ZM524.88 153.321C524.673 152.579 524.32 151.887 523.841 151.284C523.365 150.701 522.757 150.241 522.068 149.939C521.264 149.6 520.397 149.436 519.525 149.456C518.698 149.459 517.873 149.518 517.055 149.633C516.188 149.752 515.341 149.986 514.536 150.328C514.448 150.35 514.37 150.402 514.316 150.476C514.263 150.549 514.237 150.639 514.243 150.73V166.536C514.235 166.586 514.239 166.637 514.256 166.684C514.273 166.732 514.302 166.774 514.34 166.807C514.431 166.852 514.533 166.873 514.634 166.866H516.003C516.101 166.874 516.198 166.853 516.284 166.807C516.318 166.772 516.344 166.729 516.359 166.681C516.374 166.634 516.377 166.585 516.37 166.536V161.955C516.925 162.12 517.494 162.233 518.07 162.29C518.599 162.337 519.092 162.36 519.549 162.36C520.408 162.378 521.26 162.205 522.043 161.854C522.736 161.534 523.343 161.055 523.816 160.457C524.293 159.845 524.65 159.149 524.87 158.405C525.11 157.59 525.229 156.743 525.221 155.893C525.23 155.024 525.115 154.158 524.88 153.321V153.321ZM522.716 158.075C522.562 158.607 522.295 159.1 521.933 159.519C521.607 159.881 521.195 160.155 520.735 160.316C520.243 160.485 519.726 160.568 519.207 160.563C518.794 160.56 518.381 160.533 517.972 160.48C517.43 160.406 516.895 160.292 516.37 160.14V151.691C516.814 151.534 517.273 151.424 517.74 151.363C518.217 151.29 518.699 151.251 519.182 151.246C519.718 151.238 520.252 151.321 520.76 151.492C521.216 151.653 521.626 151.923 521.954 152.279C522.318 152.69 522.582 153.18 522.727 153.71C522.921 154.42 523.012 155.156 522.996 155.892C523.013 156.63 522.918 157.366 522.716 158.075V158.075ZM537.366 151.151C536.833 150.569 536.176 150.114 535.443 149.82C534.71 149.526 533.921 149.4 533.133 149.453C532.356 149.445 531.586 149.588 530.864 149.875C530.173 150.152 529.552 150.579 529.046 151.125C528.513 151.712 528.106 152.402 527.852 153.153C527.553 154.042 527.409 154.975 527.425 155.913C527.425 158.036 527.905 159.64 528.865 160.725C529.402 161.287 530.057 161.724 530.782 162.005C531.508 162.286 532.286 162.405 533.062 162.352C533.855 162.405 534.651 162.282 535.391 161.993C536.132 161.704 536.8 161.255 537.347 160.678C538.331 159.562 538.822 157.95 538.822 155.842C538.92 154.154 538.403 152.487 537.366 151.151ZM536.52 157.661C536.418 158.196 536.219 158.708 535.933 159.171C535.656 159.611 535.273 159.976 534.82 160.232C534.291 160.515 533.696 160.653 533.096 160.633C532.51 160.655 531.927 160.534 531.397 160.282C530.957 160.053 530.582 159.716 530.309 159.302C530.014 158.843 529.815 158.33 529.722 157.793C529.603 157.152 529.545 156.5 529.55 155.847C529.547 155.243 529.621 154.64 529.771 154.055C529.901 153.524 530.125 153.021 530.431 152.569C530.721 152.147 531.106 151.799 531.555 151.554C532.053 151.293 532.609 151.163 533.171 151.177C533.783 151.152 534.391 151.29 534.932 151.578C535.374 151.831 535.744 152.192 536.008 152.628C536.28 153.093 536.463 153.605 536.546 154.137C536.645 154.726 536.694 155.321 536.692 155.918C536.693 156.503 536.635 157.087 536.52 157.661V157.661ZM543.636 161.741V156.293H546.008C546.513 156.294 547.01 156.423 547.451 156.671C547.687 156.808 547.893 156.992 548.056 157.211C548.22 157.43 548.338 157.679 548.404 157.944L549.602 161.836C549.608 161.885 549.627 161.932 549.657 161.972C549.687 162.011 549.728 162.042 549.774 162.06C549.845 162.082 549.919 162.094 549.994 162.095H551.437C551.615 162.095 551.713 162.049 551.73 161.955C551.746 161.869 551.746 161.781 551.73 161.695L550.483 157.615C550.336 157.142 550.123 156.693 549.85 156.28C549.516 155.846 549.04 155.541 548.506 155.419L548.53 155.372C548.953 155.198 549.312 154.897 549.557 154.511C549.813 154.098 550.003 153.648 550.119 153.176L551.049 150.085C551.064 150.002 551.056 149.916 551.024 149.838C551.003 149.793 550.968 149.756 550.924 149.732C550.88 149.709 550.829 149.7 550.78 149.708H549.434C549.355 149.708 549.276 149.724 549.203 149.755C549.16 149.78 549.123 149.814 549.096 149.855C549.068 149.896 549.05 149.942 549.044 149.991L548.09 152.942C547.999 153.255 547.855 153.551 547.662 153.814C547.507 154.02 547.317 154.195 547.1 154.333C546.902 154.457 546.682 154.541 546.452 154.581C546.218 154.621 545.981 154.641 545.743 154.64H543.64V150.064C543.649 150.012 543.646 149.958 543.631 149.907C543.616 149.856 543.59 149.809 543.554 149.769C543.46 149.722 543.354 149.702 543.249 149.71H541.928C541.823 149.705 541.718 149.726 541.623 149.769C541.58 149.804 541.547 149.85 541.527 149.902C541.508 149.954 541.503 150.01 541.512 150.064V161.739C541.503 161.794 541.508 161.85 541.527 161.902C541.546 161.954 541.579 161.999 541.623 162.034C541.718 162.078 541.823 162.099 541.928 162.093H543.249C543.354 162.102 543.46 162.082 543.554 162.034C543.59 161.995 543.616 161.948 543.631 161.896C543.646 161.845 543.649 161.792 543.64 161.739V161.739L543.636 161.741ZM563.933 153.557C563.971 152.998 563.891 152.436 563.697 151.91C563.504 151.383 563.201 150.904 562.809 150.503C562.059 149.803 560.869 149.453 559.239 149.453C558.502 149.458 557.767 149.509 557.038 149.606C556.309 149.691 555.594 149.87 554.91 150.137C554.861 150.148 554.815 150.17 554.775 150.2C554.735 150.231 554.702 150.269 554.678 150.314C554.654 150.387 554.658 150.467 554.69 150.538L554.983 151.552C554.988 151.6 555.007 151.646 555.037 151.684C555.068 151.721 555.109 151.749 555.155 151.763C555.263 151.775 555.373 151.759 555.472 151.716C555.989 151.567 556.517 151.456 557.05 151.386C557.653 151.295 558.262 151.248 558.872 151.245C559.371 151.232 559.869 151.291 560.351 151.42C560.686 151.51 560.993 151.683 561.243 151.923C561.453 152.138 561.601 152.405 561.672 152.696C561.749 153.026 561.786 153.363 561.782 153.702V154.217H558.798C557.957 154.195 557.118 154.314 556.316 154.568C555.709 154.765 555.147 155.083 554.666 155.503C554.254 155.87 553.939 156.333 553.749 156.851C553.563 157.355 553.467 157.887 553.467 158.424C553.465 158.93 553.544 159.433 553.7 159.914C553.86 160.396 554.142 160.828 554.519 161.168C554.983 161.571 555.53 161.865 556.121 162.031C556.968 162.267 557.846 162.374 558.725 162.35C559.547 162.348 560.369 162.293 561.184 162.185C562.004 162.085 562.807 161.871 563.568 161.549C563.688 161.501 563.79 161.416 563.856 161.305C563.923 161.194 563.95 161.064 563.935 160.936V153.557H563.933ZM561.755 160.208C561.484 160.306 561.206 160.38 560.924 160.433C560.63 160.488 560.341 160.535 560.056 160.573C559.796 160.61 559.535 160.633 559.273 160.643C559.037 160.652 558.845 160.655 558.698 160.655C558.288 160.658 557.879 160.623 557.476 160.549C557.132 160.49 556.8 160.371 556.497 160.198C556.22 160.033 555.992 159.797 555.837 159.514C555.665 159.184 555.58 158.814 555.593 158.441C555.564 157.97 555.687 157.502 555.944 157.106C556.168 156.794 556.467 156.543 556.812 156.375C557.154 156.21 557.522 156.106 557.9 156.069C558.237 156.032 558.576 156.012 558.915 156.01H561.751V160.208L561.755 160.208ZM572.075 161.672V151.505H576.036C576.101 151.516 576.168 151.512 576.232 151.493C576.295 151.475 576.354 151.442 576.403 151.398C576.456 151.307 576.48 151.203 576.473 151.098V150.167C576.48 150.051 576.456 149.935 576.403 149.832C576.356 149.784 576.298 149.748 576.234 149.727C576.17 149.706 576.102 149.701 576.036 149.712H566.207C566.142 149.703 566.077 149.709 566.015 149.73C565.953 149.751 565.897 149.786 565.852 149.832C565.789 149.932 565.759 150.049 565.766 150.167V151.098C565.76 151.205 565.79 151.311 565.852 151.398C565.9 151.44 565.956 151.472 566.017 151.49C566.079 151.509 566.143 151.514 566.207 151.505H569.997V161.672C569.988 161.732 569.993 161.794 570.01 161.853C570.026 161.911 570.055 161.966 570.094 162.013C570.196 162.078 570.317 162.107 570.437 162.095H571.635C571.755 162.107 571.876 162.078 571.978 162.013C572.016 161.966 572.045 161.911 572.062 161.853C572.079 161.794 572.083 161.732 572.075 161.672V161.672H572.075Z" fill="#202020"></path> <path fill-rule="evenodd" clip-rule="evenodd" d="M732.742 137.696H847.898L838.296 172.821H723.177L732.742 137.696Z" fill="#F98E3C"></path> <path fill-rule="evenodd" clip-rule="evenodd" d="M742.814 153.133C742.83 153.165 742.899 153.314 743.024 153.581C743.15 153.849 743.284 154.135 743.439 154.442C743.595 154.748 743.737 155.031 743.867 155.291C743.998 155.551 744.071 155.696 744.088 155.727C744.153 155.853 744.291 156.12 744.504 156.529C744.716 156.937 744.936 157.374 745.163 157.838C745.391 158.302 745.608 158.738 745.812 159.147C746.016 159.556 746.15 159.823 746.215 159.949C746.306 160.165 746.449 160.356 746.631 160.504C746.831 160.619 747.061 160.673 747.291 160.657H747.853C748.08 160.674 748.307 160.621 748.502 160.504C748.677 160.352 748.815 160.163 748.905 159.949C749.052 159.651 749.248 159.257 749.492 158.77C749.737 158.282 749.973 157.803 750.201 157.331L750.8 156.093C750.972 155.741 751.073 155.538 751.106 155.491L752.329 152.944H752.427V161.741C752.417 161.795 752.421 161.85 752.438 161.901C752.455 161.953 752.485 161.999 752.524 162.036C752.615 162.082 752.716 162.102 752.818 162.095H754.089C754.195 162.105 754.301 162.084 754.395 162.036C754.43 161.997 754.456 161.95 754.471 161.899C754.486 161.848 754.489 161.794 754.481 161.741V150.586C754.477 150.371 754.403 150.164 754.27 149.996C754.173 149.891 754.052 149.811 753.917 149.762C753.783 149.713 753.639 149.697 753.497 149.715H752.738C752.51 149.699 752.281 149.748 752.079 149.855C751.883 150.006 751.724 150.2 751.614 150.421C751.581 150.484 751.507 150.629 751.394 150.858C751.279 151.085 751.141 151.357 750.978 151.671C750.815 151.985 750.648 152.324 750.477 152.685C750.306 153.047 750.139 153.388 749.976 153.699C749.813 154.01 749.673 154.289 749.56 154.525C749.446 154.761 749.372 154.91 749.34 154.973C749.291 155.052 749.181 155.268 749.01 155.622C748.838 155.976 748.658 156.357 748.46 156.766C748.261 157.174 748.08 157.556 747.909 157.91C747.739 158.264 747.636 158.48 747.603 158.558H747.533C747.5 158.511 747.411 158.339 747.264 158.039C747.117 157.74 746.962 157.414 746.8 157.061C746.637 156.707 746.481 156.381 746.334 156.082C746.241 155.906 746.16 155.725 746.09 155.539L743.522 150.421C743.429 150.187 743.267 149.985 743.058 149.843C742.852 149.748 742.625 149.703 742.398 149.713H741.64C741.497 149.697 741.353 149.713 741.218 149.76C741.082 149.807 740.959 149.884 740.857 149.984C740.715 150.153 740.637 150.366 740.637 150.586V161.742C740.628 161.796 740.632 161.85 740.649 161.902C740.666 161.953 740.696 162 740.735 162.037C740.826 162.082 740.927 162.103 741.029 162.096H742.3C742.405 162.105 742.511 162.085 742.606 162.037C742.641 161.998 742.667 161.95 742.682 161.899C742.697 161.848 742.7 161.795 742.691 161.742V153.133H742.814V153.133ZM767.634 153.554C767.673 152.995 767.593 152.433 767.399 151.907C767.205 151.381 766.902 150.901 766.51 150.5C765.761 149.8 764.571 149.45 762.94 149.45C762.204 149.455 761.469 149.506 760.739 149.604C760.01 149.688 759.295 149.867 758.612 150.135C758.563 150.146 758.517 150.167 758.477 150.198C758.436 150.228 758.403 150.267 758.38 150.311C758.355 150.385 758.359 150.465 758.392 150.535L758.685 151.55C758.69 151.598 758.708 151.643 758.739 151.681C758.769 151.718 758.81 151.746 758.857 151.76C758.965 151.773 759.074 151.756 759.174 151.713C759.691 151.564 760.218 151.454 760.752 151.383C761.355 151.292 761.964 151.245 762.573 151.243C763.072 151.23 763.571 151.288 764.053 151.417C764.388 151.507 764.695 151.68 764.946 151.92C765.155 152.135 765.303 152.402 765.374 152.693C765.45 153.023 765.487 153.361 765.483 153.699V154.214H762.5C761.659 154.192 760.82 154.311 760.018 154.565C759.41 154.763 758.849 155.081 758.368 155.5C757.956 155.868 757.641 156.331 757.45 156.848C757.264 157.352 757.169 157.885 757.169 158.421C757.167 158.927 757.245 159.43 757.402 159.911C757.562 160.393 757.844 160.825 758.221 161.165C758.684 161.568 759.231 161.863 759.822 162.029C760.67 162.264 761.548 162.371 762.427 162.348C763.249 162.345 764.07 162.29 764.885 162.183C765.706 162.083 766.508 161.868 767.27 161.546C767.39 161.499 767.491 161.413 767.558 161.302C767.624 161.191 767.652 161.061 767.637 160.933V153.557L767.634 153.554ZM765.457 160.206C765.186 160.303 764.908 160.378 764.625 160.43C764.331 160.485 764.042 160.532 763.756 160.57C763.497 160.607 763.236 160.631 762.974 160.641C762.738 160.649 762.546 160.653 762.399 160.653C761.989 160.655 761.58 160.62 761.177 160.546C760.833 160.488 760.501 160.369 760.198 160.195C759.921 160.03 759.694 159.794 759.539 159.512C759.366 159.181 759.281 158.811 759.294 158.438C759.266 157.967 759.389 157.5 759.645 157.103C759.869 156.792 760.167 156.54 760.513 156.372C760.855 156.207 761.223 156.104 761.601 156.066C761.938 156.029 762.277 156.009 762.616 156.007H765.453V160.205L765.457 160.206ZM774.724 151.502H779.786C779.847 151.512 779.908 151.508 779.967 151.491C780.026 151.475 780.081 151.446 780.128 151.407C780.187 151.306 780.213 151.189 780.202 151.073V150.164C780.208 150.048 780.183 149.932 780.128 149.83C780.086 149.783 780.032 149.747 779.973 149.726C779.913 149.705 779.849 149.699 779.786 149.71H774.699C774.046 149.688 773.394 149.792 772.78 150.017C772.329 150.189 771.926 150.468 771.606 150.83C771.317 151.177 771.112 151.585 771.007 152.024C770.892 152.487 770.835 152.962 770.836 153.439V161.671C770.827 161.734 770.833 161.798 770.855 161.858C770.876 161.917 770.912 161.971 770.959 162.013C771.07 162.076 771.198 162.104 771.325 162.095H772.504C772.632 162.109 772.761 162.08 772.871 162.013C772.91 161.966 772.938 161.911 772.955 161.853C772.972 161.794 772.976 161.732 772.968 161.672V153.106C772.949 152.886 772.977 152.664 773.048 152.456C773.12 152.247 773.234 152.056 773.384 151.894C773.768 151.601 774.248 151.462 774.729 151.505V151.505L774.724 151.502ZM790.791 153.554C790.83 152.995 790.749 152.433 790.556 151.907C790.362 151.38 790.059 150.901 789.667 150.5C788.917 149.8 787.727 149.45 786.097 149.45C785.361 149.455 784.625 149.506 783.896 149.604C783.167 149.689 782.452 149.867 781.769 150.135C781.719 150.146 781.673 150.167 781.633 150.198C781.593 150.228 781.56 150.267 781.536 150.311C781.512 150.385 781.516 150.465 781.549 150.535L781.842 151.55C781.846 151.598 781.865 151.643 781.896 151.681C781.926 151.718 781.967 151.746 782.013 151.76C782.121 151.773 782.231 151.756 782.331 151.713C782.848 151.564 783.375 151.454 783.908 151.383C784.511 151.292 785.12 151.245 785.73 151.243C786.229 151.23 786.727 151.288 787.209 151.417C787.545 151.507 787.852 151.68 788.102 151.92C788.311 152.135 788.459 152.402 788.53 152.693C788.607 153.023 788.644 153.361 788.64 153.699V154.214H785.657C784.816 154.192 783.977 154.311 783.174 154.565C782.567 154.763 782.006 155.081 781.524 155.5C781.112 155.868 780.797 156.331 780.607 156.848C780.421 157.352 780.326 157.885 780.326 158.421C780.323 158.927 780.402 159.43 780.558 159.911C780.718 160.393 781 160.825 781.377 161.165C781.841 161.568 782.388 161.863 782.979 162.029C783.826 162.264 784.704 162.371 785.583 162.348C786.405 162.345 787.227 162.29 788.042 162.183C788.862 162.082 789.665 161.868 790.426 161.546C790.546 161.499 790.648 161.413 790.714 161.302C790.78 161.191 790.808 161.061 790.793 160.933V153.557L790.791 153.554ZM788.613 160.206C788.342 160.303 788.064 160.378 787.781 160.43C787.488 160.485 787.198 160.532 786.913 160.57C786.654 160.607 786.392 160.631 786.13 160.641C785.894 160.649 785.703 160.653 785.556 160.653C785.146 160.655 784.737 160.62 784.333 160.546C783.989 160.488 783.658 160.369 783.356 160.195C783.078 160.031 782.85 159.795 782.695 159.512C782.522 159.181 782.438 158.811 782.451 158.438C782.423 157.967 782.546 157.5 782.802 157.103C783.026 156.792 783.325 156.54 783.67 156.372C784.012 156.207 784.381 156.104 784.758 156.066C785.096 156.029 785.434 156.009 785.774 156.007H788.61V160.205L788.613 160.206ZM800.546 155.488C801.146 155.233 801.674 154.837 802.087 154.333C802.467 153.876 802.675 153.3 802.674 152.705C802.691 152.228 802.581 151.755 802.356 151.334C802.13 150.914 801.797 150.56 801.39 150.311C800.374 149.711 799.206 149.421 798.027 149.474C797.23 149.471 796.436 149.551 795.656 149.713C794.959 149.854 794.285 150.087 793.65 150.406C793.614 150.419 793.581 150.441 793.553 150.468C793.525 150.495 793.504 150.528 793.49 150.564C793.476 150.6 793.47 150.639 793.472 150.678C793.475 150.717 793.485 150.754 793.503 150.789L793.944 151.809C793.952 151.859 793.977 151.904 794.016 151.936C794.055 151.969 794.104 151.986 794.154 151.986C794.242 151.978 794.329 151.959 794.411 151.927C794.918 151.729 795.442 151.575 795.976 151.467C796.554 151.338 797.145 151.271 797.737 151.266C798.465 151.221 799.193 151.374 799.84 151.712C800.057 151.832 800.238 152.008 800.363 152.223C800.488 152.437 800.552 152.682 800.549 152.93C800.549 154.085 799.44 154.687 797.223 154.734C797.13 154.71 797.033 154.709 796.939 154.728C796.845 154.748 796.757 154.789 796.681 154.849C796.606 154.908 796.545 154.984 796.503 155.07C796.462 155.156 796.44 155.251 796.441 155.347V155.748C796.43 155.838 796.442 155.93 796.476 156.015C796.51 156.1 796.565 156.174 796.636 156.232C796.824 156.331 797.036 156.376 797.247 156.361C798.237 156.287 799.229 156.478 800.121 156.915C800.382 157.058 800.6 157.267 800.753 157.522C800.905 157.777 800.987 158.069 800.989 158.366C800.989 158.684 800.915 158.998 800.773 159.282C800.631 159.567 800.424 159.815 800.17 160.006C799.369 160.525 798.418 160.761 797.468 160.678C796.793 160.677 796.12 160.598 795.462 160.442C794.919 160.325 794.387 160.161 793.873 159.95C793.789 159.907 793.698 159.879 793.604 159.867C793.562 159.865 793.52 159.876 793.485 159.9C793.449 159.923 793.423 159.957 793.408 159.997L792.87 161.059C792.852 161.099 792.843 161.142 792.844 161.186C792.844 161.231 792.854 161.274 792.872 161.314C792.891 161.354 792.918 161.389 792.951 161.418C792.985 161.447 793.024 161.468 793.066 161.48C793.761 161.823 794.51 162.046 795.279 162.14C796.109 162.263 796.947 162.326 797.786 162.329C798.555 162.343 799.321 162.239 800.06 162.022C800.651 161.849 801.207 161.569 801.698 161.197C802.122 160.874 802.464 160.456 802.698 159.977C802.931 159.498 803.05 158.971 803.043 158.438C803.056 157.766 802.816 157.114 802.371 156.611C801.888 156.08 801.251 155.713 800.549 155.562V155.491L800.546 155.488ZM805.608 161.173C805.597 161.302 805.616 161.431 805.662 161.552C805.709 161.672 805.782 161.781 805.877 161.869C806.079 162.026 806.331 162.105 806.586 162.093H807.148C807.382 162.103 807.615 162.05 807.821 161.94C808.034 161.795 808.213 161.606 808.347 161.385L812.162 155.819C812.357 155.538 812.537 155.27 812.7 155.017C812.863 154.764 813.022 154.516 813.179 154.275C813.333 154.032 813.488 153.788 813.643 153.544C813.798 153.3 813.974 153.036 814.169 152.754H814.315V161.764C814.307 161.814 814.312 161.865 814.329 161.912C814.347 161.96 814.376 162.002 814.414 162.035C814.504 162.08 814.606 162.101 814.707 162.094H816.052C816.157 162.103 816.263 162.083 816.358 162.035C816.392 162 816.417 161.957 816.432 161.91C816.447 161.862 816.451 161.813 816.443 161.764V150.656C816.453 150.524 816.433 150.393 816.384 150.27C816.335 150.147 816.259 150.038 816.162 149.949C815.967 149.788 815.72 149.705 815.467 149.712H814.835C814.587 149.693 814.34 149.75 814.127 149.878C813.94 150.037 813.783 150.229 813.664 150.444L809.982 155.939C809.576 156.506 809.214 157.036 808.897 157.531C808.58 158.026 808.226 158.573 807.836 159.171H807.739V150.067C807.746 150.012 807.742 149.957 807.727 149.904C807.712 149.851 807.686 149.802 807.651 149.76C807.559 149.703 807.45 149.679 807.342 149.689H806.008C805.904 149.682 805.8 149.706 805.71 149.76C805.672 149.8 805.642 149.848 805.625 149.902C805.608 149.955 805.603 150.011 805.611 150.067V161.176L805.608 161.173ZM821.796 161.668V156.314H828.13V161.668C828.121 161.73 828.127 161.793 828.146 161.852C828.165 161.912 828.198 161.966 828.241 162.011C828.349 162.074 828.475 162.103 828.6 162.093H829.812C829.937 162.108 830.064 162.078 830.171 162.011C830.241 161.911 830.272 161.789 830.257 161.668V150.114C830.266 150.056 830.262 149.996 830.248 149.94C830.233 149.883 830.207 149.83 830.171 149.783C830.061 149.724 829.936 149.7 829.812 149.713H828.6C828.476 149.704 828.352 149.728 828.241 149.783C828.197 149.825 828.164 149.877 828.145 149.935C828.125 149.992 828.12 150.054 828.13 150.114V154.572H821.796V150.114C821.806 150.054 821.801 149.993 821.782 149.935C821.763 149.878 821.731 149.826 821.687 149.783C821.579 149.728 821.457 149.704 821.336 149.713H820.155C820.03 149.705 819.905 149.73 819.792 149.783C819.745 149.823 819.71 149.875 819.688 149.933C819.667 149.991 819.661 150.053 819.671 150.114V161.671C819.663 161.734 819.669 161.797 819.69 161.857C819.711 161.916 819.746 161.97 819.792 162.013C819.902 162.075 820.028 162.104 820.155 162.095H821.34C821.462 162.106 821.585 162.077 821.691 162.013C821.733 161.968 821.765 161.914 821.784 161.855C821.803 161.795 821.808 161.733 821.8 161.671V161.671L821.796 161.668Z" fill="#202020"></path> </svg> 