<?xml version="1.0" encoding="UTF-8"?> <svg xmlns="http://www.w3.org/2000/svg" width="101" height="101" viewBox="0 0 101 101" fill="none"> <path d="M93.5 53H86V40.5C86 40.1022 85.842 39.7206 85.5607 39.4393C85.2794 39.158 84.8978 39 84.5 39H61V26.5C61 26.1022 60.842 25.7206 60.5607 25.4393C60.2794 25.158 59.8978 25 59.5 25H8.5C8.10218 25 7.72064 25.158 7.43934 25.4393C7.15804 25.7206 7 26.1022 7 26.5V73.5C7 73.8978 7.15804 74.2794 7.43934 74.5607C7.72064 74.842 8.10218 75 8.5 75H19.92C20.1242 76.8744 21.0134 78.6073 22.417 79.8662C23.8205 81.1252 25.6396 81.8215 27.525 81.8215C29.4104 81.8215 31.2295 81.1252 32.633 79.8662C34.0366 78.6073 34.9258 76.8744 35.13 75H68.68C68.8843 76.8769 69.7747 78.6122 71.1801 79.873C72.5855 81.1337 74.407 81.8309 76.295 81.8309C78.183 81.8309 80.0045 81.1337 81.4099 79.873C82.8153 78.6122 83.7057 76.8769 83.91 75H93.5C93.8978 75 94.2794 74.842 94.5607 74.5607C94.842 74.2794 95 73.8978 95 73.5V54.5C95 54.1022 94.842 53.7206 94.5607 53.4393C94.2794 53.158 93.8978 53 93.5 53V53ZM27.5 78.84C26.5771 78.844 25.6738 78.5738 24.9046 78.0637C24.1354 77.5536 23.535 76.8266 23.1795 75.9749C22.8241 75.1232 22.7295 74.1851 22.9079 73.2795C23.0862 72.374 23.5294 71.5418 24.1813 70.8885C24.8333 70.2352 25.6645 69.7901 26.5696 69.6098C27.4748 69.4295 28.4131 69.5221 29.2656 69.8757C30.1181 70.2294 30.8464 70.8282 31.3581 71.5963C31.8698 72.3643 32.142 73.2671 32.14 74.19C32.1375 75.4139 31.6536 76.5876 30.7929 77.4576C29.9322 78.3277 28.7638 78.8242 27.54 78.84H27.5ZM27.5 66.53C25.858 66.5402 24.2625 67.0772 22.9485 68.0618C21.6344 69.0465 20.671 70.4269 20.2 72H10V28H58V72H34.86C34.3894 70.4228 33.4234 69.0391 32.105 68.0539C30.7866 67.0687 29.1859 66.5344 27.54 66.53H27.5ZM76.29 78.84C75.3679 78.84 74.4666 78.5664 73.7 78.0539C72.9335 77.5415 72.3362 76.8131 71.9838 75.961C71.6314 75.1089 71.5397 74.1714 71.7203 73.2672C71.9009 72.363 72.3457 71.5327 72.9984 70.8813C73.6511 70.23 74.4824 69.787 75.387 69.6083C76.2916 69.4296 77.2289 69.5234 78.0802 69.8776C78.9316 70.2318 79.6587 70.8307 80.1695 71.5983C80.6804 72.366 80.952 73.2679 80.95 74.19C80.9473 75.4242 80.4552 76.6069 79.5816 77.4787C78.708 78.3504 77.5242 78.84 76.29 78.84ZM92 72H83.63C83.1506 70.4338 82.1812 69.0628 80.8644 68.0888C79.5476 67.1147 77.9529 66.589 76.315 66.589C74.6771 66.589 73.0824 67.1147 71.7656 68.0888C70.4488 69.0628 69.4794 70.4338 69 72H61V42H83V54.5C83 54.8978 83.158 55.2794 83.4393 55.5607C83.7206 55.842 84.1022 56 84.5 56H92V72Z" fill="#F774AB"></path> <path d="M16.5 43H47L42 48C41.8526 48.1373 41.7344 48.3029 41.6524 48.4869C41.5705 48.6709 41.5264 48.8695 41.5228 49.071C41.5193 49.2724 41.5563 49.4724 41.6318 49.6592C41.7072 49.846 41.8195 50.0156 41.9619 50.1581C42.1044 50.3005 42.274 50.4128 42.4608 50.4882C42.6476 50.5637 42.8476 50.6007 43.049 50.5972C43.2505 50.5936 43.4491 50.5495 43.6331 50.4676C43.8171 50.3856 43.9827 50.2674 44.12 50.12L50.85 43.39C51.1309 43.1087 51.2887 42.7275 51.2887 42.33C51.2887 41.9325 51.1309 41.5513 50.85 41.27L44.12 34.54C43.9782 34.4008 43.8103 34.2909 43.626 34.2166C43.4417 34.1422 43.2446 34.1049 43.0459 34.1068C42.8471 34.1087 42.6507 34.1496 42.4679 34.2274C42.285 34.3052 42.1192 34.4182 41.98 34.56C41.8408 34.7018 41.7309 34.8697 41.6566 35.054C41.5822 35.2383 41.5449 35.4354 41.5468 35.6341C41.5486 35.8329 41.5896 36.0293 41.6674 36.2121C41.7452 36.395 41.8582 36.5608 42 36.7L45.3 40H16.5C16.1022 40 15.7206 40.158 15.4393 40.4393C15.158 40.7206 15 41.1022 15 41.5C15 41.8978 15.158 42.2794 15.4393 42.5607C15.7206 42.842 16.1022 43 16.5 43Z" fill="#F774AB"></path> <path d="M49.0001 57.5C49.0001 57.1022 48.8421 56.7206 48.5607 56.4393C48.2794 56.158 47.8979 56 47.5001 56H17.1001L22.0001 51.11C22.1386 50.9695 22.2481 50.8031 22.3224 50.6202C22.3966 50.4374 22.4341 50.2417 22.4327 50.0444C22.4313 49.8471 22.3911 49.652 22.3143 49.4702C22.2375 49.2884 22.1256 49.1235 21.9851 48.985C21.8446 48.8465 21.6781 48.7369 21.4953 48.6627C21.3125 48.5885 21.1168 48.551 20.9195 48.5524C20.7222 48.5538 20.527 48.594 20.3453 48.6708C20.1635 48.7476 19.9986 48.8595 19.8601 49L13.1301 55.73C12.8492 56.0112 12.6914 56.3925 12.6914 56.79C12.6914 57.1875 12.8492 57.5687 13.1301 57.85L19.8601 64.58C20.1425 64.8638 20.5262 65.0237 20.9266 65.0247C21.3269 65.0256 21.7113 64.8675 21.9951 64.585C22.2789 64.3025 22.4388 63.9189 22.4398 63.5185C22.4407 63.1181 22.2825 62.7338 22.0001 62.45L18.5401 59H47.5401C47.9309 58.9896 48.3023 58.8269 48.575 58.5468C48.8477 58.2666 49.0002 57.891 49.0001 57.5V57.5Z" fill="#F774AB"></path> </svg> 