<?xml version/src/="1.0" encoding="UTF-8" standalone="no"?>
<svg
   xmlns:dc="http://purl.org/dc/elements/1.1/"
   xmlns:cc="http://creativecommons.org/ns#"
   xmlns:rdf="http://www.w3.org/1999/02/22-rdf-syntax-ns#"
   xmlns:svg="http://www.w3.org/2000/svg"
   xmlns="http://www.w3.org/2000/svg"
   xmlns:sodipodi="http://sodipodi.sourceforge.net/DTD/sodipodi-0.dtd"
   xmlns:inkscape="http://www.inkscape.org/namespaces/inkscape"
   version="1.0"
   width="1324.000000pt"
   height="235.000000pt"
   viewBox="0 0 1324.000000 235.000000"
   preserveAspectRatio="xMidYMid meet"
   id="svg151"
   sodipodi:docname="logo2.svg"
   inkscape:version="0.92.3 (2405546, 2018-03-11)">
  <defs
     id="defs155" />
  <sodipodi:namedview
     pagecolor="#ffffff"
     bordercolor="#666666"
     borderopacity="1"
     objecttolerance="10"
     gridtolerance="10"
     guidetolerance="10"
     inkscape:pageopacity="0"
     inkscape:pageshadow="2"
     inkscape:window-width="1920"
     inkscape:window-height="1001"
     id="namedview153"
     showgrid="false"
     inkscape:zoom="0.70710678"
     inkscape:cx="896.20086"
     inkscape:cy="196.20284"
     inkscape:window-x="0"
     inkscape:window-y="27"
     inkscape:window-maximized="1"
     inkscape:current-layer="svg151" />
  <metadata
     id="metadata135">
Created by potrace 1.14, written by Peter Selinger 2001-2017
<rdf:RDF>
  <cc:Work
     rdf:about="">
    <dc:format>image/svg+xml</dc:format>
    <dc:type
       rdf:resource="http://purl.org/dc/dcmitype/StillImage" />
    <dc:title></dc:title>
  </cc:Work>
</rdf:RDF>
</metadata>
  <path
     style="fill:#c60300;stroke:none;stroke-width:0.1"
     inkscape:connector-curvature="0"
     id="path137"
     d="m 63,2.4 c -0.5,1.5 -1,3.3 -1,4 0,0.7 -0.6,3.2 -1.4,5.7 -0.8,2.4 -2.7,8.9 -4.1,14.4 -1.5,5.5 -3.3,12 -4,14.5 -0.7,2.5 -2,7.2 -2.9,10.5 C 48.7,54.8 46.2,64 44,72 c -2.2,8 -4.7,17.2 -5.6,20.5 -0.9,3.3 -2.2,8 -2.9,10.5 -1.8,6.1 -6,21.5 -21.8,79.3 L 0.3,231 h 68.1 c 87.3,0 105,-1.1 121.3,-7.6 9,-3.6 12.8,-6.1 18.8,-12.3 9.3,-9.6 14.6,-22 22.5,-52.6 2.6,-10 3.1,-13.5 2.8,-21.1 -0.3,-8 -0.6,-9.6 -3.3,-14 -2.5,-4.1 -4.3,-5.5 -10.5,-8.7 -4.1,-2 -11.8,-4.8 -17,-6.1 -10.4,-2.5 -10.5,-2.3 3,-5.1 C 229.1,98.9 239.5,92 246.5,76.7 254,60.2 256.3,36.1 251.3,26.5 246,16.4 233.5,8.3 218.2,5 202.9,1.7 187,0.9 124.8,0.3 L 64,-0.2 Z m 103.1,41.4 c 3.7,4.1 3.8,8.2 0.3,20.5 -3.2,11.3 -7.6,21 -10.7,23 -3.5,2.3 -12.5,3.9 -19.8,3.5 l -6.6,-0.3 4.2,-15 c 2.3,-8.3 5.4,-19.7 7,-25.4 l 2.8,-10.3 10,0.4 c 9.7,0.4 10,0.4 12.8,3.6 z m -31.8,84.1 c 8.8,1.2 10.7,2.8 10.7,9.4 0,5.6 -7.8,35.1 -11.1,42.2 -2.6,5.4 -6.7,9.1 -11.7,10.4 -5.4,1.4 -20.2,2.4 -20.2,1.5 0,-0.5 3.9,-15.2 8.7,-32.7 l 8.6,-31.7 h 4.1 c 2.3,0.1 7.2,0.5 10.9,0.9 z" />
  <path
     style="fill:#000000;stroke:none;stroke-width:0.1"
     inkscape:connector-curvature="0"
     id="path139"
     d="m 715,4.7 c -0.7,2.7 -1.8,6.8 -2.5,9.3 -0.7,2.5 -2,7.2 -2.9,10.5 -0.9,3.3 -3.2,11.8 -5.2,19 -2,7.1 -4,14.3 -4.4,16 -0.4,1.6 -1.8,6.6 -3,11 -1.2,4.4 -2.6,9.3 -3,11 -0.4,1.6 -2.2,8.2 -4,14.5 -1.8,6.3 -3.6,12.8 -4,14.5 -0.4,1.6 -1.8,6.6 -3,11 -1.2,4.4 -2.6,9.3 -3,11 -0.8,3.1 -25.7,93.6 -26.6,96.7 -0.5,1.7 2.1,1.8 45,1.8 H 744 l 0.6,-2.8 c 0.3,-1.5 1.2,-4.7 1.9,-7.2 0.7,-2.5 2,-7.2 2.9,-10.5 0.9,-3.3 3.4,-12.5 5.6,-20.5 2.2,-8 4.7,-17.2 5.6,-20.5 0.9,-3.3 2.2,-8 2.9,-10.5 1.4,-5.1 4.6,-16.5 7.1,-25.8 1.7,-6.2 1.7,-6.2 5.3,-6.2 7.8,0 15.6,1.9 17.5,4.2 3.2,3.9 1.6,12.6 -10.5,56.5 -6.1,22.4 -11.4,41.4 -11.6,42.1 -0.4,0.9 8.4,1.2 42.1,1.2 h 42.5 l 1.1,-3.7 c 0.5,-2.1 2.3,-8.5 4,-14.3 3.2,-11.4 6.8,-24.8 8,-29.5 0.4,-1.7 1.8,-6.6 3,-11 6.9,-25.1 8.6,-34.5 7.1,-39.4 -2.8,-9.4 -12.6,-16.1 -29.9,-20.4 l -8.7,-2.2 9.5,-1.2 c 19.1,-2.4 29.2,-6.4 36.9,-14.8 C 900.2,79.8 909.2,44.6 903.6,28.3 900.3,18.5 890,9.9 876.5,5.7 863.9,1.8 828.6,0.1 759.4,0 h -43.1 z m 96,36.4 c 9.4,2.2 10.4,5.9 6,22.5 -3.7,13.7 -6.8,20.4 -10.7,23.2 -3,2.1 -15.8,4.6 -20.9,4 l -3.1,-0.3 2.3,-8.5 c 1.3,-4.7 3.1,-11.2 4,-14.5 1.8,-6.5 3.1,-11.4 5.9,-21.3 l 1.8,-6.2 h 5.1 c 2.8,0 7.1,0.5 9.6,1.1 z" />
  <path
     style="fill:#c60300;stroke:none;stroke-width:0.1"
     inkscape:connector-curvature="0"
     id="path141"
     d="m 362.5,39 c -23.1,1.6 -40.1,5.8 -56.6,14 -14,6.9 -23.1,14.7 -30.6,26.2 -7.7,11.9 -10.5,19.5 -21.2,58.5 -10.3,37.7 -11.4,42.9 -11.4,54.3 0,8.2 0.3,10.2 2.6,15 9.1,19 33,27.2 80.2,27.3 37.1,0.1 61.5,-5.2 83.9,-18.2 11.4,-6.6 23.1,-18.5 27.8,-28.1 5.6,-11.5 12,-31.4 19.8,-61.5 0.4,-1.7 2.5,-9.3 4.6,-17 3.2,-11.9 3.8,-15.6 3.8,-24.5 0.1,-9.2 -0.2,-11.1 -2.3,-15.4 C 455.9,54.9 436.6,44.5 409.9,40.6 396.4,38.7 376.4,38 362.5,39 Z m 17.4,34.6 c 2.1,1.5 2.3,2.2 1.8,7.3 -0.6,7 -28.1,107 -30.8,112.3 -1.1,2.1 -3.4,4.8 -5.2,5.8 -4,2.5 -13.2,2.7 -16.5,0.4 -4.1,-2.8 -3.2,-8.5 7.9,-47.9 2.1,-7.7 4.6,-16.7 5.5,-20 0.9,-3.3 2.2,-8 2.9,-10.5 0.7,-2.5 2.5,-9 4,-14.5 6.9,-25.1 8.8,-29.5 13.8,-32.5 4.1,-2.5 13.2,-2.7 16.6,-0.4 z" />
  <path
     style="fill:#000000;stroke:none;stroke-width:0.1"
     inkscape:connector-curvature="0"
     id="path143"
     d="m 1011,38.7 c -32.6,3.1 -53.9,9.3 -70.7,20.7 -8.1,5.5 -17.2,15.9 -22.5,25.6 -4.8,8.7 -7.5,17.5 -21.7,70 -5.4,20 -6.4,25.3 -6.5,34.5 0,9.2 2.6,16 8.8,23.2 14,16 51.1,24.5 94.1,21.5 18.9,-1.4 28.3,-3.1 41,-7.4 16.7,-5.7 27.8,-12.3 40.2,-24.1 6.1,-5.8 8.2,-8.7 11.8,-16.1 2.4,-5 5.8,-14.1 7.5,-20.1 1.7,-6.1 3.3,-11.8 3.6,-12.8 0.5,-1.6 -1.9,-1.7 -41,-1.7 H 1014 l -0.6,2.7 c -0.3,1.6 -2.4,9.1 -4.5,16.8 -5.5,19.5 -8.7,25.1 -15.8,28.1 -4.4,1.8 -12.5,1.8 -16.1,-0.1 -2.7,-1.4 -3,-2 -3,-6.4 0,-2.7 2.2,-12.8 5.1,-23.2 5.9,-21.4 7.9,-28.8 7.9,-29.4 0,-0.3 25.5,-0.6 56.7,-0.7 l 56.6,-0.3 3.4,-12 c 9.3,-33.2 10.2,-46.9 3.8,-59.5 -6,-11.9 -23,-22 -44.5,-26.4 -13.8,-2.8 -38.8,-4.2 -52,-2.9 z m 15,35.1 c 3.6,2.9 3.1,8.8 -2.7,29.4 l -1.6,5.8 h -12.8 c -7.1,0 -12.9,-0.3 -12.9,-0.7 0,-2 8,-27.2 9.7,-30.6 0.8,-1.6 2.9,-3.5 4.6,-4.2 4.7,-2.1 13,-1.9 15.7,0.3 z" />
  <path
     style="fill:#000000;stroke:none;stroke-width:0.1"
     inkscape:connector-curvature="0"
     id="path145"
     d="m 1227,38.7 c -29,2.7 -43.8,6.6 -64,16.6 -8.3,4.1 -12,6.7 -17.6,12.2 -11.8,11.6 -14.7,18.3 -27.4,64.5 -11.1,40.5 -12.4,47 -11.8,60.2 0.5,11.5 3.5,18.6 10.6,24.9 6.3,5.6 18.7,11.3 30,13.9 28.9,6.4 73.5,4.3 98.2,-4.6 22.1,-7.9 42.2,-22.9 49.8,-37.1 3.3,-6.3 12.2,-31.3 12.2,-34.4 0,-1.9 -1.3,-1.9 -38.7,-1.7 l -38.7,0.3 -4.6,16 c -2.6,8.8 -5.3,17.3 -5.9,19 -3.3,8 -9.5,12.5 -17.3,12.5 -10.9,0 -14,-7.6 -9.4,-23 0.8,-2.5 2.1,-7.2 3,-10.5 0.9,-3.3 3.4,-12.5 5.6,-20.5 2.2,-8 4.7,-17.2 5.6,-20.5 0.9,-3.3 2.2,-8 2.9,-10.5 0.7,-2.5 2.5,-9 4,-14.5 3.2,-12.1 6.3,-21.2 8.2,-24.2 3.9,-5.9 18,-7.2 21.5,-1.9 1.4,2 0.8,9.1 -1.3,16.6 -1.1,4.1 -2.7,9.7 -3.4,12.5 -0.8,2.7 -1.7,5.8 -2,6.7 -0.7,1.7 1.7,1.8 40.8,1.8 38.7,0 41.6,-0.1 42.1,-1.8 4.6,-15.3 5.1,-35.4 1,-43.5 -7.9,-15.4 -30.5,-25.7 -62.4,-28.6 -10.9,-1 -23.2,-1.2 -31,-0.4 z" />
  <path
     style="fill:#c60300;stroke:none;stroke-width:0.1"
     inkscape:connector-curvature="0"
     id="path147"
     d="m 483,42.3 c 0,0.8 11.1,79.5 11.9,84.5 l 0.8,5.2 -9.3,14.3 c -5.1,7.8 -16.6,25.4 -25.6,39.1 -9,13.7 -19.3,29.5 -23,35.2 L 431,231 h 36.3 36.2 l 1.6,-2.8 c 11,-18.6 16.7,-28.5 25,-43.7 l 9.9,-18 v 15 c 0,16.5 0.8,38.6 1.6,45.2 l 0.5,4.3 h 42.1 42.1 l -0.7,-3.3 c -0.4,-1.7 -2,-12.2 -3.6,-23.2 -6,-40.5 -7.9,-53.2 -9.4,-62.4 -0.9,-5.2 -1.3,-9.9 -0.9,-10.5 0.8,-1.3 16,-24.5 40.6,-61.9 C 662.1,55 670,42.7 670,42.4 670,42.2 652.8,42 631.7,42 h -38.2 l -6.7,11.2 c -8,13.7 -20.2,35.7 -25.2,45.5 -2.1,4 -4.1,7.5 -4.7,7.8 -0.5,0.4 -0.9,-11.1 -1,-29.9 -0.1,-16.8 -0.3,-31.1 -0.4,-31.6 -0.1,-0.6 -0.3,-1.5 -0.4,-2 C 555,42.1 483,41.4 483,42.3 Z" />
</svg>
